<svg width="946" height="140" viewBox="0 0 946 140" fill="none" xmlns="http://www.w3.org/2000/svg">
<g clip-path="url(#clip0_868_1494)">
<path d="M75.1938 73.6121V127.714C79.7542 127.251 84.1547 126.231 88.3389 124.758V73.6121H75.1938Z" fill="#DB1212"/>
<path d="M30.3521 73.6121V112.67C34.2636 116.306 38.6829 119.404 43.4971 121.84V73.6121H30.3521Z" fill="#DB1212"/>
<path d="M12.0354 73.6121C12.5996 83.8772 15.8435 93.4151 21.0714 101.555V73.6121H12.0354Z" fill="#DB1212"/>
<path d="M52.7681 73.6121V125.57C56.9617 126.836 61.3622 127.638 65.9037 127.903V73.6121H52.7681Z" fill="#DB1212"/>
<path d="M97.6194 73.6121V120.499C102.49 117.723 106.909 114.247 110.755 110.206V73.6121H97.6194Z" fill="#DB1212"/>
<path d="M120.045 97.3058C123.806 90.1665 126.129 82.1395 126.589 73.6121H120.045V97.3058Z" fill="#DB1212"/>
<path d="M110.764 73.612V110.206C114.422 106.372 117.553 102.037 120.045 97.2963V73.6025H110.764V73.612Z" fill="white"/>
<path d="M88.3389 73.6121V124.758C91.5734 123.615 94.6763 122.189 97.6194 120.509V73.6215H88.3389V73.6121Z" fill="white"/>
<path d="M65.9133 73.6121V127.903C67.0417 127.969 68.17 128.016 69.3171 128.016C71.3011 128.016 73.2663 127.912 75.2033 127.714V73.6121H65.9227H65.9133Z" fill="white"/>
<path d="M43.4875 73.6121V121.84C46.4494 123.342 49.5429 124.598 52.7681 125.57V73.6121H43.4875Z" fill="white"/>
<path d="M21.062 73.6121V101.555C23.6854 105.644 26.8071 109.384 30.3425 112.67V73.6121H21.062Z" fill="white"/>
<path d="M23.3471 42.6189L28.5092 45.2442C29.4119 45.6975 29.9573 46.3585 30.1453 47.2084C30.3334 48.0584 30.1923 48.9744 29.7034 49.9471C29.205 50.9292 28.5656 51.5997 27.7664 51.9491C26.9672 52.2985 26.1209 52.2513 25.2183 51.7885L20.0562 49.1632L20.987 47.3218L26.1491 49.9471C26.6381 50.1926 27.0518 50.2492 27.4091 50.117C27.7664 49.9848 28.0673 49.6921 28.293 49.2294C28.5186 48.7761 28.5845 48.37 28.4716 48.0111C28.3682 47.6523 28.0673 47.3406 27.5784 47.0951L22.4162 44.4698L23.3471 42.6283V42.6189Z" fill="#0E3A7A"/>
<path d="M32.7312 40.6167C32.4867 40.4279 32.2234 40.3618 31.9695 40.4279C31.7062 40.494 31.3395 40.6828 30.8694 40.9945C29.9197 41.6744 29.1205 42.1183 28.4717 42.3071C27.8229 42.496 27.2023 42.3638 26.5912 41.9011C25.9988 41.4572 25.7167 40.8339 25.7355 40.0501C25.7543 39.2569 26.0646 38.4636 26.657 37.6704C27.2493 36.8866 27.9263 36.3955 28.7068 36.1972C29.4872 35.9989 30.183 36.15 30.8036 36.641L30.8224 36.6694L29.6282 38.2653C29.3462 38.0576 29.0453 37.9726 28.7256 38.0387C28.4059 38.1048 28.1238 38.2936 27.8699 38.6336C27.6255 38.9641 27.5032 39.2758 27.5032 39.578C27.5032 39.8801 27.6161 40.1068 27.8323 40.2673C28.0392 40.4279 28.2742 40.4562 28.5375 40.3618C28.8008 40.2673 29.2239 40.0312 29.8069 39.6441C30.6531 39.0208 31.396 38.6336 32.0542 38.492C32.7123 38.3503 33.3423 38.5108 33.9535 38.9641C34.5741 39.4363 34.8844 40.0407 34.8656 40.7962C34.8562 41.5422 34.5459 42.326 33.9441 43.1287C33.3423 43.9314 32.6183 44.4791 31.7721 44.7624C30.9258 45.0458 30.136 44.8947 29.3932 44.3092L29.3744 44.2808L30.5779 42.6754C30.9822 42.9871 31.3583 43.0909 31.6968 43.006C32.0353 42.921 32.3738 42.6471 32.7123 42.2033C32.9662 41.8633 33.0885 41.5611 33.0791 41.2872C33.0696 41.0134 32.9568 40.7962 32.7312 40.6356V40.6167Z" fill="#0E3A7A"/>
<path d="M40.2249 31.2393L37.5828 33.4868L39.0026 35.1772L42.1243 32.533L43.1398 33.7418L38.4478 37.7175L32.7498 30.9371L37.4511 26.9519L38.4666 28.1607L35.3355 30.8143L36.5579 32.2686L39.2094 30.021L40.2249 31.2298V31.2393Z" fill="#0E3A7A"/>
<path d="M46.4497 28.9445C46.2899 28.6801 46.0736 28.5196 45.8104 28.4818C45.5471 28.444 45.1334 28.4818 44.5786 28.5951C43.4409 28.869 42.5382 28.9729 41.8706 28.9068C41.203 28.8407 40.6764 28.4818 40.2815 27.8208C39.896 27.1881 39.8678 26.4987 40.1781 25.781C40.4884 25.0538 41.0714 24.44 41.9176 23.93C42.7545 23.4201 43.5725 23.2218 44.3717 23.3351C45.171 23.4484 45.7633 23.8451 46.1489 24.5344V24.5722L44.4564 25.6015C44.2777 25.2994 44.0238 25.1105 43.7041 25.0444C43.3844 24.9783 43.0459 25.0538 42.6886 25.271C42.3313 25.4882 42.1057 25.7338 42.0022 26.0076C41.8988 26.2815 41.9082 26.5365 42.0493 26.7725C42.1809 26.9992 42.3877 27.1125 42.6792 27.122C42.9613 27.1314 43.4409 27.0747 44.1273 26.9331C45.1428 26.6687 45.9796 26.5931 46.6378 26.7064C47.296 26.8198 47.8225 27.2069 48.2175 27.8585C48.6218 28.529 48.6688 29.209 48.3773 29.8983C48.0858 30.5877 47.5122 31.1921 46.6566 31.7115C45.8009 32.2309 44.9265 32.467 44.0332 32.4103C43.1494 32.3537 42.4724 31.9193 41.9928 31.0882V31.0505L43.6947 30.0117C43.958 30.4461 44.2589 30.6916 44.6068 30.7388C44.9547 30.786 45.3684 30.6633 45.848 30.3705C46.2147 30.1533 46.4403 29.9172 46.5344 29.6623C46.6284 29.4073 46.6002 29.1617 46.4591 28.9257L46.4497 28.9445Z" fill="#0E3A7A"/>
<path d="M53.1257 20.5304L50.9631 21.4086L53.6711 28.1702L51.7623 28.9446L49.0543 22.183L46.9105 23.0518L46.3181 21.5786L52.5333 19.0667L53.1257 20.5398V20.5304Z" fill="#0E3A7A"/>
<path d="M59.8862 24.5628L57.1782 25.2144L57.0936 27.0087L55.0908 27.4903L55.796 18.1979L57.9399 17.6785L62.7823 25.6393L60.7795 26.121L59.8862 24.5628ZM57.2535 23.5618L59.0776 23.1179L57.4415 20.2471H57.4039L57.2535 23.5618Z" fill="#0E3A7A"/>
<path d="M73.3323 21.7675C73.3135 22.863 72.9562 23.7601 72.251 24.4495C71.5458 25.1483 70.6431 25.4883 69.5336 25.4694C68.4146 25.4505 67.512 25.0822 66.8256 24.3645C66.1392 23.6468 65.8101 22.7402 65.8289 21.6447L65.8571 20.0488C65.8759 18.9628 66.2332 18.0657 66.9384 17.3668C67.6436 16.668 68.5557 16.328 69.6746 16.3469C70.7841 16.3658 71.6774 16.7341 72.3638 17.4613C73.0502 18.179 73.3793 19.0856 73.3605 20.181L73.3323 21.777V21.7675ZM71.3201 20.1243C71.3295 19.4916 71.1885 18.9722 70.897 18.5567C70.6055 18.1412 70.1918 17.9334 69.6464 17.924C69.0916 17.924 68.6685 18.1129 68.3676 18.5095C68.0667 18.9061 67.9163 19.4255 67.8975 20.0677L67.8693 21.6731C67.8599 22.3152 68.0009 22.8441 68.2924 23.2501C68.5839 23.6657 69.007 23.8734 69.5618 23.8829C70.0977 23.8829 70.5209 23.694 70.8217 23.2974C71.1226 22.9007 71.2825 22.3719 71.2919 21.7297L71.3201 20.1243Z" fill="#0E3A7A"/>
<path d="M76.9992 19.3123L76.924 20.2378C77.1873 19.9544 77.4976 19.7372 77.8361 19.6145C78.1746 19.4823 78.5413 19.4539 78.9268 19.52C79.5568 19.6334 80.0175 19.9167 80.309 20.3983C80.5911 20.8705 80.6569 21.5598 80.5065 22.457L79.8201 26.4894L77.7985 26.1399L78.4849 22.1076C78.5507 21.7393 78.5131 21.456 78.3908 21.2765C78.2592 21.0971 78.0523 20.9838 77.7515 20.9271C77.5634 20.8988 77.3942 20.8988 77.2343 20.946C77.0745 20.9932 76.9334 21.0593 76.8112 21.1632L76.0119 25.8378L73.9998 25.4883L75.1093 18.9912L77.0086 19.3217L76.9992 19.3123Z" fill="#0E3A7A"/>
<path d="M82.7068 27.3864L80.7322 26.8103L83.365 17.6785L85.3395 18.2545L82.7068 27.3864Z" fill="#0E3A7A"/>
<path d="M85.7625 28.4818L83.835 27.7641L86.1198 21.5881L88.0474 22.3058L85.7625 28.4913V28.4818ZM88.5739 20.8704L86.6464 20.1526L87.1259 18.8589L89.0535 19.5766L88.5739 20.8704Z" fill="#0E3A7A"/>
<path d="M91.3665 23.7507L91.0186 24.6101C91.3571 24.4118 91.705 24.3079 92.0717 24.2796C92.4384 24.2607 92.7958 24.3362 93.1343 24.5062C93.7078 24.7989 94.0651 25.2145 94.1968 25.7527C94.3284 26.291 94.1968 26.971 93.783 27.7831L91.9495 31.4377L90.116 30.5123L91.9495 26.8576C92.1188 26.5177 92.1658 26.2438 92.0999 26.036C92.0341 25.8283 91.8649 25.6489 91.5922 25.5167C91.423 25.4317 91.2537 25.3844 91.0939 25.3844C90.934 25.3844 90.7742 25.4033 90.6237 25.4694L88.4987 29.7001L86.6746 28.7747L89.627 22.8914L91.3477 23.7602L91.3665 23.7507Z" fill="#0E3A7A"/>
<path d="M95.043 33.723C94.2532 33.1658 93.7925 32.467 93.6702 31.636C93.548 30.8049 93.7455 30.0117 94.272 29.2657L94.4037 29.0768C94.9772 28.2552 95.6636 27.7358 96.4535 27.5186C97.2433 27.3014 98.0425 27.4808 98.8324 28.0474C99.5564 28.5574 99.9795 29.1807 100.083 29.9173C100.186 30.6444 99.9795 31.3904 99.4529 32.1365L98.8324 33.0147L95.7671 30.8522L95.7388 30.871C95.579 31.1732 95.532 31.4754 95.5978 31.7871C95.6636 32.0987 95.8517 32.3631 96.162 32.5898C96.4817 32.8164 96.7543 32.9675 96.98 33.0525C97.2057 33.1375 97.5066 33.2225 97.8827 33.3075L97.563 34.6107C97.2057 34.6107 96.8014 34.5446 96.35 34.4029C95.8987 34.2518 95.4568 34.0252 95.0336 33.7324L95.043 33.723ZM97.9297 29.3318C97.6852 29.1618 97.4501 29.124 97.2057 29.209C96.9612 29.294 96.7261 29.4734 96.5005 29.7473V29.785L97.9391 30.8049L98.0331 30.6727C98.2212 30.3989 98.3152 30.1533 98.3058 29.9267C98.3058 29.7001 98.1742 29.5017 97.9297 29.3318Z" fill="#0E3A7A"/>
<path d="M104.925 39.4551C105.161 39.2473 105.264 39.0018 105.255 38.7374C105.245 38.473 105.123 38.0763 104.907 37.5475C104.418 36.4804 104.136 35.6116 104.07 34.9411C104.004 34.2706 104.258 33.6757 104.813 33.1657C105.358 32.6652 106.016 32.4952 106.787 32.6652C107.558 32.8352 108.273 33.279 108.94 34.0156C109.599 34.7428 109.956 35.5077 110.003 36.3104C110.05 37.1131 109.777 37.7741 109.176 38.303L109.138 38.3219L107.803 36.8392C108.066 36.6032 108.198 36.3198 108.198 35.9893C108.198 35.6588 108.057 35.3472 107.775 35.0355C107.502 34.7333 107.21 34.5539 106.919 34.4972C106.627 34.45 106.383 34.5067 106.185 34.6956C105.997 34.875 105.922 35.1016 105.969 35.3849C106.016 35.6682 106.167 36.131 106.43 36.7731C106.881 37.7175 107.116 38.5296 107.135 39.2001C107.154 39.8706 106.881 40.4655 106.317 40.9849C105.744 41.5138 105.085 41.6932 104.361 41.5421C103.628 41.391 102.923 40.9472 102.255 40.2011C101.578 39.4551 101.183 38.643 101.061 37.7553C100.939 36.8676 101.24 36.1121 101.954 35.4888L101.992 35.4699L103.336 36.9526C102.96 37.2925 102.782 37.6419 102.81 38.0008C102.838 38.3502 103.036 38.7374 103.412 39.1529C103.694 39.4645 103.976 39.644 104.239 39.6817C104.502 39.7195 104.737 39.644 104.944 39.4645L104.925 39.4551Z" fill="#0E3A7A"/>
<path d="M106.185 44.9984L104.991 43.3175L110.341 39.4929L111.536 41.1738L106.185 44.9984ZM112.777 40.2861L111.583 38.6052L112.701 37.8025L113.896 39.4834L112.777 40.2861Z" fill="#0E3A7A"/>
<path d="M115.08 43.7991L113.679 44.6302L114.244 45.5934L113.021 46.3206L112.457 45.3573L109.871 46.8966C109.674 47.0194 109.552 47.1421 109.505 47.2744C109.467 47.4066 109.486 47.5482 109.57 47.6899C109.636 47.8032 109.693 47.8882 109.74 47.9448C109.787 48.0015 109.843 48.077 109.928 48.1715L108.696 49.0686C108.536 48.8986 108.395 48.7381 108.282 48.5964C108.169 48.4548 108.056 48.2754 107.925 48.0582C107.586 47.4727 107.474 46.9438 107.615 46.4528C107.746 45.9711 108.151 45.5273 108.818 45.1307L111.423 43.5914L110.953 42.7981L112.175 42.071L112.645 42.8642L114.055 42.0332L115.099 43.7991H115.08Z" fill="#0E3A7A"/>
<path d="M110.05 52.355C109.664 51.4673 109.627 50.6362 109.947 49.8619C110.266 49.0875 110.849 48.5115 111.686 48.1432L111.893 48.0487C112.805 47.6427 113.661 47.5577 114.451 47.7843C115.24 48.0109 115.833 48.5681 116.218 49.4653C116.576 50.2868 116.613 51.0329 116.331 51.7128C116.049 52.3927 115.485 52.9216 114.648 53.2899L113.67 53.7243L112.156 50.2774H112.119C111.827 50.4568 111.63 50.6929 111.526 50.9951C111.423 51.2973 111.451 51.6184 111.601 51.9772C111.761 52.3361 111.912 52.6099 112.062 52.7988C112.213 52.9877 112.429 53.2143 112.711 53.4787L111.761 54.4325C111.451 54.2531 111.141 53.9792 110.83 53.6204C110.52 53.2615 110.257 52.8366 110.05 52.355ZM114.78 50.098C114.657 49.8241 114.479 49.6636 114.225 49.6163C113.971 49.5691 113.679 49.5975 113.341 49.7108L113.322 49.7391L114.037 51.3634L114.178 51.2973C114.479 51.1651 114.686 50.9951 114.798 50.7968C114.902 50.5985 114.902 50.3624 114.78 50.098Z" fill="#0E3A7A"/>
<path d="M95.1089 49.2197L97.7135 54.5175L103.534 55.3675L99.3214 59.4943L100.318 65.3209L95.1089 62.5728L89.8998 65.3209L90.8965 59.4943L86.6841 55.3675L92.5044 54.5175L95.1089 49.2197Z" fill="#0E3A7A"/>
<path d="M43.5159 49.2197L46.1205 54.5175L51.9502 55.3675L47.7284 59.4943L48.7251 65.3209L43.5159 62.5728L38.3068 65.3209L39.3035 59.4943L35.0911 55.3675L40.9114 54.5175L43.5159 49.2197Z" fill="#0E3A7A"/>
<path d="M85.678 47.1326L74.3665 45.4895L69.3172 35.196L64.2585 45.4895L52.947 47.1326L61.1274 55.1502L59.1999 66.4541L69.3172 61.1185L79.4252 66.4541L77.4976 55.1502L85.678 47.1326Z" fill="#0E3A7A"/>
<path d="M69.3171 0.774414C31.0949 0.774414 0 32.0041 0 70.392C0 108.78 31.0949 140.009 69.3171 140.009C107.539 140.009 138.634 108.78 138.634 70.392C138.634 32.0041 107.53 0.774414 69.3171 0.774414ZM69.3171 132.511C35.2039 132.511 7.45638 104.644 7.45638 70.3825C7.45638 36.1215 35.2039 8.26312 69.3171 8.26312C103.43 8.26312 131.178 36.1309 131.178 70.392C131.178 104.653 103.43 132.521 69.3171 132.521V132.511Z" fill="#0E3A7A"/>
<path d="M222.281 57.9169H183.203V82.7816H229.267V100.592H160.007V0.868652H229.408V18.6791H183.213V40.1159H222.29V57.9263L222.281 57.9169Z" fill="black"/>
<path d="M289.135 74.7264C289.135 71.2134 287.969 68.4937 285.646 66.5767C283.314 64.6596 279.14 62.6293 273.122 60.4761C260.532 56.5004 251.195 52.2508 245.13 47.6991C239.065 43.1567 236.028 36.5935 236.028 28.0094C236.028 19.4252 239.639 12.8998 246.879 7.73415C254.109 2.578 263.296 -0.00952148 274.429 -0.00952148C285.562 -0.00952148 294.513 2.83298 301.565 8.51797C308.617 14.203 312.021 21.5217 311.795 30.4741L311.654 30.8896H289.21C289.21 26.9139 287.865 23.6842 285.176 21.2006C282.487 18.717 278.763 17.4704 274.024 17.4704C269.286 17.4704 265.722 18.4998 263.07 20.549C260.428 22.6077 259.102 25.1385 259.102 28.151C259.102 31.1635 260.438 33.4111 263.108 35.1675C265.778 36.924 270.781 39.1338 278.133 41.778C289.445 45.1588 297.973 49.3139 303.7 54.2434C309.426 59.1729 312.284 65.9534 312.284 74.5848C312.284 83.2161 308.871 90.2138 302.054 95.1621C295.228 100.12 286.182 102.594 274.918 102.594C263.653 102.594 253.818 99.7517 245.553 94.0667C237.297 88.3817 233.282 80.1942 233.508 69.5136L233.649 69.0981H256.169C256.169 74.8492 257.72 78.9571 260.823 81.4313C263.926 83.8961 268.627 85.1331 274.927 85.1331C279.713 85.1331 283.286 84.1699 285.637 82.2529C287.988 80.3358 289.163 77.8239 289.163 74.717L289.135 74.7264Z" fill="black"/>
<path d="M390.759 18.6697H364.479V100.583H341.273V18.6697H315.199V0.868652H390.759V18.6791V18.6697Z" fill="black"/>
<path d="M439.861 81.2046H408.446L402.833 100.592H379.561L411.728 0.868652H436.57L468.803 100.592H445.531L439.851 81.2046H439.861ZM413.58 63.3941H434.727L424.328 27.7071H423.914L413.58 63.3941Z" fill="black"/>
<path d="M178.295 114.03V130.245C178.295 132.983 177.392 135.099 175.587 136.591C173.782 138.083 171.422 138.819 168.497 138.819C165.573 138.819 163.241 138.073 161.455 136.591C159.668 135.099 158.775 132.983 158.775 130.245V114.03H163.674V130.235C163.674 131.85 164.106 133.05 164.962 133.852C165.818 134.655 167.002 135.052 168.507 135.052C170.011 135.052 171.234 134.655 172.099 133.862C172.964 133.068 173.406 131.86 173.406 130.235V114.03H178.304H178.295Z" fill="black"/>
<path d="M194.835 132.096C194.835 131.151 194.505 130.396 193.838 129.829C193.18 129.263 192.014 128.724 190.349 128.214C187.453 127.374 185.263 126.382 183.777 125.23C182.291 124.078 181.558 122.501 181.558 120.499C181.558 118.497 182.404 116.863 184.106 115.589C185.808 114.323 187.971 113.681 190.613 113.681C193.255 113.681 195.465 114.399 197.148 115.825C198.831 117.251 199.639 119.007 199.592 121.104L199.555 121.207H194.825C194.825 120.074 194.449 119.158 193.697 118.459C192.945 117.761 191.892 117.411 190.528 117.411C189.165 117.411 188.215 117.704 187.5 118.28C186.786 118.865 186.429 119.602 186.429 120.509C186.429 121.34 186.814 122.02 187.576 122.548C188.337 123.077 189.654 123.644 191.525 124.239C194.214 124.985 196.245 125.976 197.627 127.213C199.009 128.441 199.696 130.065 199.696 132.067C199.696 134.069 198.878 135.807 197.232 137.016C195.587 138.225 193.415 138.829 190.726 138.829C188.036 138.829 185.761 138.14 183.786 136.77C181.812 135.401 180.853 133.475 180.909 131L180.947 130.896H185.695C185.695 132.351 186.137 133.418 187.021 134.098C187.905 134.778 189.137 135.118 190.726 135.118C192.051 135.118 193.067 134.844 193.763 134.296C194.468 133.748 194.816 133.012 194.816 132.096H194.835Z" fill="black"/>
<path d="M230.95 127.733H220.871V134.702H232.652V138.48H215.991V114.04H232.624V117.817H220.871V123.965H230.95V127.742V127.733Z" fill="black"/>
<path d="M247.932 132.096C247.932 131.151 247.603 130.396 246.935 129.829C246.267 129.263 245.111 128.724 243.447 128.214C240.551 127.374 238.36 126.382 236.874 125.23C235.388 124.078 234.655 122.501 234.655 120.499C234.655 118.497 235.501 116.863 237.203 115.589C238.905 114.323 241.068 113.681 243.71 113.681C246.352 113.681 248.562 114.399 250.245 115.825C251.928 117.251 252.737 119.007 252.69 121.104L252.652 121.207H247.922C247.922 120.074 247.546 119.158 246.794 118.459C246.042 117.761 244.989 117.411 243.625 117.411C242.262 117.411 241.312 117.704 240.598 118.28C239.883 118.865 239.526 119.602 239.526 120.509C239.526 121.34 239.911 122.02 240.673 122.548C241.434 123.077 242.751 123.644 244.622 124.239C247.311 124.985 249.342 125.976 250.724 127.213C252.107 128.441 252.793 130.065 252.793 132.067C252.793 134.069 251.975 135.807 250.329 137.016C248.684 138.225 246.512 138.829 243.823 138.829C241.134 138.829 238.858 138.14 236.883 136.77C234.909 135.401 233.95 133.475 234.006 131L234.044 130.896H238.792C238.792 132.351 239.234 133.418 240.118 134.098C241.002 134.778 242.234 135.118 243.823 135.118C245.149 135.118 246.164 134.844 246.86 134.296C247.565 133.748 247.913 133.012 247.913 132.096H247.932Z" fill="black"/>
<path d="M272.464 117.808H265.581V138.47H260.701V117.808H253.846V114.03H272.464V117.808Z" fill="black"/>
<path d="M285.712 133.201H277.174L275.52 138.47H270.593L278.97 114.03H283.973L292.313 138.47H287.386L285.731 133.201H285.712ZM278.378 129.357H284.509L281.5 119.753H281.396L278.369 129.357H278.378Z" fill="black"/>
<path d="M326.727 128.45C326.727 131.454 325.787 133.928 323.897 135.883C322.007 137.837 319.553 138.819 316.534 138.819C313.516 138.819 311.1 137.837 309.228 135.883C307.357 133.928 306.417 131.444 306.417 128.45V124.05C306.417 121.066 307.348 118.582 309.219 116.618C311.09 114.654 313.516 113.671 316.516 113.671C319.515 113.671 321.988 114.654 323.887 116.618C325.777 118.582 326.727 121.056 326.727 124.05V128.45ZM321.847 124.031C321.847 122.123 321.377 120.565 320.427 119.337C319.477 118.119 318.18 117.505 316.516 117.505C314.851 117.505 313.572 118.11 312.651 119.328C311.739 120.546 311.278 122.114 311.278 124.031V128.469C311.278 130.405 311.739 131.992 312.67 133.21C313.591 134.428 314.879 135.042 316.534 135.042C318.189 135.042 319.506 134.428 320.446 133.21C321.386 131.992 321.847 130.405 321.847 128.469V124.031Z" fill="black"/>
<path d="M333.741 120.31L333.958 122.917C334.559 121.991 335.302 121.264 336.177 120.754C337.06 120.244 338.038 119.98 339.138 119.98C340.963 119.98 342.392 120.556 343.417 121.708C344.442 122.86 344.959 124.664 344.959 127.128V138.48H340.06V127.119C340.06 125.901 339.815 125.032 339.326 124.522C338.838 124.012 338.095 123.757 337.107 123.757C336.459 123.757 335.885 123.889 335.368 124.154C334.851 124.418 334.428 124.786 334.08 125.268V138.48H329.2V120.32H333.741V120.31Z" fill="black"/>
<path d="M352.876 138.47H347.996V112.283H352.876V138.47Z" fill="black"/>
<path d="M361.16 115.957H356.28V112.283H361.16V115.957ZM361.16 138.47H356.28V120.31H361.16V138.47Z" fill="black"/>
<path d="M368.785 120.31L369.002 122.917C369.603 121.991 370.346 121.264 371.221 120.754C372.105 120.244 373.082 119.98 374.183 119.98C376.007 119.98 377.436 120.556 378.461 121.708C379.486 122.86 380.003 124.664 380.003 127.128V138.48H375.104V127.119C375.104 125.901 374.86 125.032 374.371 124.522C373.882 124.012 373.139 123.757 372.152 123.757C371.503 123.757 370.929 123.889 370.412 124.154C369.895 124.418 369.472 124.786 369.124 125.268V138.48H364.244V120.32H368.785V120.31Z" fill="black"/>
<path d="M390.788 138.819C388.183 138.819 386.096 137.979 384.535 136.298C382.974 134.617 382.194 132.483 382.194 129.905V129.234C382.194 126.533 382.927 124.314 384.404 122.567C385.88 120.82 387.864 119.951 390.346 119.961C392.781 119.961 394.681 120.697 396.025 122.18C397.37 123.653 398.047 125.655 398.047 128.177V130.849H387.253L387.215 130.953C387.3 132.143 387.704 133.125 388.409 133.899C389.114 134.664 390.073 135.051 391.296 135.051C392.377 135.051 393.27 134.938 393.985 134.721C394.7 134.504 395.48 134.154 396.326 133.692L397.643 136.723C396.909 137.327 395.941 137.837 394.747 138.234C393.552 138.631 392.227 138.829 390.769 138.829L390.788 138.819ZM390.355 123.748C389.453 123.748 388.738 124.097 388.212 124.786C387.685 125.476 387.365 126.392 387.243 127.525L387.29 127.61H393.27V127.176C393.27 126.137 393.026 125.306 392.546 124.683C392.057 124.059 391.333 123.748 390.346 123.748H390.355Z" fill="black"/>
<path d="M427.026 132.096C427.026 131.151 426.697 130.396 426.029 129.829C425.362 129.263 424.205 128.724 422.541 128.214C419.645 127.374 417.454 126.382 415.968 125.23C414.483 124.078 413.749 122.501 413.749 120.499C413.749 118.497 414.596 116.863 416.297 115.589C417.999 114.323 420.162 113.681 422.804 113.681C425.446 113.681 427.656 114.399 429.339 115.825C431.022 117.251 431.831 119.007 431.784 121.104L431.746 121.207H427.017C427.017 120.074 426.64 119.158 425.888 118.459C425.136 117.761 424.083 117.411 422.72 117.411C421.356 117.411 420.406 117.704 419.692 118.28C418.977 118.865 418.62 119.602 418.62 120.509C418.62 121.34 419.005 122.02 419.767 122.548C420.529 123.077 421.845 123.644 423.716 124.239C426.405 124.985 428.436 125.976 429.819 127.213C431.201 128.441 431.887 130.065 431.887 132.067C431.887 134.069 431.069 135.807 429.424 137.016C427.778 138.225 425.606 138.829 422.917 138.829C420.228 138.829 417.952 138.14 415.978 136.77C414.003 135.401 413.044 133.475 413.1 131L413.138 130.896H417.886C417.886 132.351 418.328 133.418 419.212 134.098C420.096 134.778 421.328 135.118 422.917 135.118C424.243 135.118 425.258 134.844 425.954 134.296C426.659 133.748 427.007 133.012 427.007 132.096H427.026Z" fill="black"/>
<path d="M439.475 115.957H434.595V112.283H439.475V115.957ZM439.475 138.47H434.595V120.31H439.475V138.47Z" fill="black"/>
<path d="M448.427 115.862V120.31H451.464V123.748H448.427V132.993C448.427 133.701 448.568 134.202 448.859 134.504C449.151 134.806 449.536 134.957 450.025 134.957C450.279 134.957 450.505 134.948 450.683 134.919C450.871 134.891 451.078 134.844 451.323 134.778L451.736 138.319C451.248 138.489 450.768 138.612 450.298 138.697C449.828 138.782 449.32 138.819 448.775 138.819C447.092 138.819 445.794 138.357 444.891 137.422C443.979 136.496 443.528 135.023 443.528 133.012V123.748H440.886V120.31H443.528V115.862H448.408H448.427Z" fill="black"/>
<path d="M461.722 138.819C459.118 138.819 457.03 137.979 455.469 136.298C453.909 134.617 453.128 132.483 453.128 129.905V129.234C453.128 126.533 453.862 124.314 455.338 122.567C456.814 120.82 458.798 119.951 461.28 119.961C463.716 119.961 465.615 120.697 466.96 122.18C468.304 123.653 468.981 125.655 468.981 128.177V130.849H458.187L458.149 130.953C458.234 132.143 458.638 133.125 459.343 133.899C460.049 134.664 461.008 135.051 462.23 135.051C463.311 135.051 464.205 134.938 464.919 134.721C465.634 134.504 466.414 134.154 467.261 133.692L468.577 136.723C467.843 137.327 466.875 137.837 465.681 138.234C464.487 138.631 463.161 138.829 461.703 138.829L461.722 138.819ZM461.29 123.748C460.387 123.748 459.672 124.097 459.146 124.786C458.619 125.476 458.3 126.392 458.177 127.525L458.224 127.61H464.205V127.176C464.205 126.137 463.96 125.306 463.481 124.683C462.992 124.059 462.268 123.748 461.28 123.748H461.29Z" fill="black"/>
</g>
<path d="M533.942 125.536V122.599H527.215V126.882H525.471V122.599H518.703V125.536H517V121.334H525.513V120.028H518.163V118.764H534.648V120.028H527.298V121.334H535.728V125.536H534.025H533.942ZM532.364 137H528.419C526.634 137 525.471 136.878 525.471 134.552V133.777H520.488V135.287H518.827V127.453H533.735V133.777H527.132V134.471C527.132 135.45 527.506 135.572 528.752 135.572H532.281C533.693 135.572 534.44 135.572 534.773 133.043C535.396 133.491 535.645 133.614 536.309 133.859C535.645 137 534.316 137 532.323 137H532.364ZM520.073 124.557V123.496H524.018V124.557H520.073ZM520.073 126.434V125.414H524.018V126.434H520.073ZM525.471 128.718H520.488V129.983H525.471V128.718ZM525.471 131.166H520.488V132.472H525.471V131.166ZM532.115 128.718H527.132V129.983H532.115V128.718ZM532.115 131.166H527.132V132.472H532.115V131.166ZM528.627 124.557V123.496H532.53V124.557H528.627ZM528.627 126.434V125.414H532.53V126.434H528.627Z" fill="black"/>
<path d="M548.018 127.882V133.906C548.018 136.67 547.159 136.959 543.436 137C543.355 136.257 543.191 135.845 542.864 135.02C543.723 135.143 544.009 135.226 544.827 135.226C546.218 135.226 546.218 134.813 546.218 133.576V127.882H537.382V126.232H546.218V123.096L547.486 123.385C548.264 122.931 549.982 121.569 551.127 120.373H539.427V118.764H553.132L554.195 119.836C553.255 120.868 551.005 123.013 548.059 125.035V126.273H556.691V127.923H548.059L548.018 127.882Z" fill="black"/>
<path d="M560.989 126.899C559.846 125.885 558.988 125.236 557.764 124.587L558.662 123.167C559.56 123.695 561.111 124.749 562.009 125.479C561.56 126.007 561.356 126.291 560.989 126.899ZM559.764 135.742C559.764 135.742 560.009 136.067 560.009 136.229C560.009 136.351 559.927 136.432 559.805 136.432C559.723 136.432 559.641 136.432 559.478 136.351L557.805 135.459C559.642 132.619 560.662 130.104 561.234 128.562C561.928 129.252 562.254 129.495 562.499 129.658C561.968 131.159 560.785 134.039 559.723 135.783L559.764 135.742ZM562.295 121.91C560.376 120.125 559.846 119.76 559.274 119.435L560.336 118.137C561.764 119.07 562.826 120.084 563.356 120.571C562.907 121.098 562.826 121.139 562.336 121.91H562.295ZM573.97 121.18C574.297 121.22 574.623 121.261 574.623 121.463C574.623 121.707 574.174 121.747 574.052 121.788V123.248H576.787V124.587H574.052V127.751H568.01V124.587H565.847V127.305C565.847 130.144 565.683 133.633 563.356 136.878C562.948 136.513 562.622 136.31 561.846 135.986C563.887 133.268 564.295 131.037 564.295 127.102V119.8H569.439V117.691L571.398 117.853C571.398 117.853 571.766 117.894 571.766 118.097C571.766 118.34 571.439 118.421 571.194 118.502V119.841H576.991V121.22H573.97V121.18ZM576.011 136.919C573.603 136.351 571.317 134.85 571.031 134.688C569.643 135.621 568.133 136.31 566.581 136.878C566.377 136.513 566.091 136.108 565.357 135.499C567.112 135.053 568.296 134.607 569.684 133.755C568.867 133.146 568.133 132.538 567.071 131.443L568.255 130.428C569.521 131.767 569.929 132.092 570.99 132.862C572.378 131.767 572.99 130.956 573.358 130.307H566.418V128.928H574.991L575.726 129.698C575.113 130.794 574.215 132.132 572.378 133.714C574.256 134.728 575.644 135.134 577.073 135.499C576.583 136.067 576.297 136.392 576.011 137V136.919ZM568.051 121.18H565.887V123.248H568.051V121.18ZM572.541 121.18H569.725C569.97 121.261 570.174 121.342 570.174 121.463C570.174 121.707 569.765 121.747 569.561 121.788V123.248H572.541V121.18ZM572.541 124.546H569.561V126.412H572.541V124.546Z" fill="black"/>
<path d="M594.967 136.475C592.914 136.475 592.914 135.667 592.914 134.617V125.689H590.307C590.307 128.032 590.268 129.971 589.992 131.587C589.794 132.799 588.965 135.344 587.228 137C586.714 136.313 586.398 136.111 586.043 135.869C585.688 136.919 584.858 136.919 583.2 136.96C583.2 136.475 582.963 135.829 582.686 135.303C582.963 135.344 583.318 135.384 583.832 135.384C584.779 135.384 584.779 135.101 584.779 134.092V128.194C584.779 128.194 583.753 128.275 583.595 128.315V133.486H582.331V128.436C582.331 128.436 581.383 128.517 581.225 128.517C581.068 132.637 580.633 134.738 579.607 136.919C579.133 136.596 578.856 136.475 578.146 136.273C579.488 133.688 579.725 131.264 579.804 128.598C579.646 128.598 579.291 128.598 579.093 128.638C579.014 128.88 578.935 129.163 578.698 129.163C578.461 129.163 578.422 128.84 578.382 128.719L578.264 127.143C578.738 127.143 579.093 127.143 579.764 127.103V120.115H581.818C582.173 119.307 582.252 118.943 582.647 117.691L584.266 118.054C584.266 118.054 584.621 118.216 584.621 118.337C584.621 118.58 584.266 118.66 584.029 118.701C583.832 119.226 583.792 119.307 583.437 120.115H586.161V126.578C587.07 126.497 587.385 126.416 587.82 126.336C587.662 126.82 587.622 127.224 587.622 127.83C587.227 127.911 586.951 127.951 586.161 128.073V134.576C586.161 134.899 586.161 135.465 586.082 135.788C588.649 133.203 588.728 130.214 588.728 128.073V124.195H594.454V134.536C594.454 134.738 594.612 134.859 595.125 134.859C595.52 134.859 595.796 134.778 595.875 134.172C595.954 133.445 596.033 132.556 596.033 132.031C596.27 132.193 596.744 132.637 597.455 132.92C597.257 136.152 596.744 136.596 594.888 136.596L594.967 136.475ZM584.819 121.488H581.265V126.982C582.45 126.942 584.187 126.74 584.819 126.699V121.488ZM582.844 125.972C582.726 125.124 582.292 123.75 581.818 122.821L583.081 122.377C583.437 123.225 583.911 124.558 584.108 125.528C583.634 125.608 583.318 125.689 582.844 125.932V125.972ZM586.833 122.256V120.761H590.86V117.812L592.598 117.933C592.598 117.933 593.072 117.974 593.072 118.216C593.072 118.378 592.953 118.458 592.519 118.58V120.761H596.941V122.256H586.793H586.833Z" fill="black"/>
<path d="M599.6 122.938V121.6H607.136V122.938H599.6ZM613.695 136.514H611.577C610.069 136.514 609.906 135.541 609.906 134.852V130.354C609.906 130.354 609.703 130.557 609.418 130.557C609.214 131.894 608.807 133.353 607.87 135.136C607.503 134.893 607.136 134.69 606.566 134.487V136.757H605.059V135.703H601.963V137H600.415V129.989H606.607V134.285C607.584 132.542 607.91 131.286 608.195 129.624L609.581 129.989C609.581 129.989 609.906 130.03 609.988 130.192V128.773L611.617 128.895C611.943 128.895 612.106 128.976 612.106 129.138C612.106 129.381 611.862 129.462 611.577 129.584V134.366C611.577 135.014 611.943 135.014 612.962 135.014C614.347 135.014 614.632 135.014 614.876 132.461C615.08 132.623 615.65 133.029 616.424 133.15C616.017 136.433 614.673 136.514 613.817 136.514H613.695ZM600.659 125.775V124.437H606.159V125.775H600.659ZM600.659 128.611V127.274H606.159V128.611H600.659ZM600.7 120.142V118.845H606.199V120.142H600.7ZM605.018 131.408H601.922V134.285H605.018V131.408ZM613.532 127.112C613.491 126.342 613.206 125.612 613.125 125.369V125.45C612.717 125.167 612.31 124.842 611.454 124.316C610.966 125.207 609.988 126.747 607.829 128.003C607.422 127.477 607.259 127.274 606.607 126.869C607.829 126.22 609.295 125.207 610.151 123.546C609.255 123.059 608.644 122.816 607.992 122.533L608.684 121.236C609.092 121.398 609.54 121.6 610.68 122.127C610.803 121.641 610.884 121.033 610.925 120.263H607.34V118.764H617.728C617.524 126.666 616.954 127.193 613.532 127.031V127.112ZM613.491 131.327C612.799 129.787 612.31 128.936 611.577 128.044L612.758 127.315C613.002 127.598 613.573 128.328 613.899 128.854C614.673 130.192 614.754 130.354 614.876 130.475C614.428 130.678 613.939 130.962 613.532 131.367L613.491 131.327ZM612.432 120.344C612.432 120.749 612.351 121.763 612.025 122.938C612.473 123.181 613.328 123.667 613.899 124.113C613.573 124.478 613.41 124.761 613.165 125.329C613.858 125.531 614.306 125.531 614.469 125.531C615.08 125.531 615.528 125.45 615.732 124.437C615.935 123.465 616.017 122.451 616.098 120.385H612.473L612.432 120.344ZM617.32 134.528C616.995 133.191 616.465 131.408 615.528 129.584L616.75 128.936C617.606 130.394 618.38 132.34 618.909 134.001C618.257 134.163 617.931 134.285 617.361 134.569L617.32 134.528Z" fill="black"/>
<path d="M619.982 122.906V121.566H628.01V122.906H619.982ZM625.705 136.716V135.7H622.329V137H620.764V129.974H627.31V136.675H625.746L625.705 136.716ZM621.011 120.104V118.764H627.022V120.104H621.011ZM621.052 125.709V124.369H627.022V125.709H621.052ZM621.052 128.552V127.212H627.022V128.552H621.052ZM625.705 131.395H622.329V134.238H625.705V131.395ZM627.845 136.066V134.522H629.41V123.15L631.139 123.231C631.345 123.231 631.551 123.353 631.551 123.556C631.551 123.8 631.263 123.881 631.016 123.962V134.522H633.033V120.266H628.134V118.764H639.003V120.266H634.68V125.871H638.632V127.455H634.68V134.522H639.291V136.066H627.804H627.845Z" fill="black"/>
<path d="M647.631 127.923C645.598 126.294 643.095 125.277 642.509 125.032L643.526 123.567C644.933 124.096 647.357 125.358 648.725 126.376C648.139 126.986 647.748 127.678 647.631 127.923ZM645.207 136.512C645.207 136.715 645.129 137 644.894 137C644.738 137 644.659 136.837 644.581 136.674L643.76 135.046C649.781 132.889 655.02 128.818 658.5 123.282C658.891 123.852 659.204 124.34 659.673 124.788C654.746 132.482 647.122 135.779 645.246 136.512H645.207ZM650.016 123.038C648.1 121.572 646.145 120.758 644.62 120.148L645.637 118.764C647.318 119.374 649.195 120.188 651.071 121.491C650.68 121.898 650.25 122.549 650.016 123.038Z" fill="black"/>
<path d="M678.586 135.649C676.791 133.106 674.588 130.842 672.017 129.054C670.345 131.239 667.163 134.179 663.001 135.927C662.634 135.212 662.389 134.855 661.818 134.338C663.736 133.663 670.794 130.882 673.853 121.664H663.654V119.995H674.18C674.506 119.995 675.281 119.956 675.608 119.836L676.628 120.79C676.179 121.346 675.893 122.022 675.852 122.141C675.036 124.088 674.18 125.995 672.956 127.703C674.955 129.054 677.851 131.517 680.054 134.179C679.32 134.815 679.198 134.894 678.586 135.609V135.649Z" fill="black"/>
<path d="M693.172 126.63C693.132 128.717 693.012 133.802 686.147 135.927C685.827 135.472 685.508 135.13 684.829 134.561C690.617 133.043 691.376 129.703 691.376 126.667H683.273V125.112H700.436V126.667H693.172V126.63ZM686.107 121.392V119.836H697.602V121.392H686.107Z" fill="black"/>
<path d="M719.442 134.855C719.213 134.267 718.83 133.289 718.181 132.036C710.077 133.602 709.924 133.602 704.648 134.267C704.572 134.502 704.495 134.62 704.343 134.62C704.151 134.62 704.113 134.502 704.037 134.267L703.655 132.584C704.19 132.584 704.61 132.545 705.757 132.427C707.439 129.178 709.618 123.423 710.65 118.764L712.408 119.273C712.676 119.351 712.791 119.429 712.791 119.547C712.791 119.821 712.485 119.899 712.332 119.938C712.103 120.525 710.688 124.832 710.497 125.458C710.344 125.85 708.815 130.039 707.668 132.271C710.841 131.879 713.976 131.409 717.416 130.705C716.46 129.099 715.352 127.612 714.052 126.241L715.466 125.302C717.569 127.573 720.092 131.566 720.818 133.68C720.665 133.758 719.901 134.267 719.404 134.855H719.442Z" fill="black"/>
<path d="M735.63 118.804V120.556H726.099V125.734H734.475V127.486H726.099V133.102H735.836V134.855H724.036V118.764H735.671L735.63 118.804Z" fill="black"/>
<path d="M747.304 123.788C747.186 121.497 746.006 120.572 743.843 120.572C743.449 120.572 740.46 120.572 740.46 123.105C740.46 124.793 741.561 125.235 744.708 126.441C747.933 127.687 749.782 128.37 749.782 131.104C749.782 133.154 748.327 135.927 744.157 135.927C741.286 135.927 738.1 134.561 737.982 130.581H740.106C740.106 132.913 741.679 134.118 744 134.118C746.321 134.118 747.776 132.832 747.776 131.265C747.776 129.576 746.439 129.054 743.921 128.17C740.421 126.923 738.493 126.2 738.493 123.346C738.493 120.492 740.735 118.764 743.882 118.764C746.517 118.764 749.035 119.809 749.428 123.788H747.383H747.304Z" fill="black"/>
<path d="M764.8 118.764V120.516H759.38V134.855H757.347V120.516H751.927V118.764H764.76H764.8Z" fill="black"/>
<path d="M774.046 118.764L779.818 134.855H777.765L776.487 131.23H769.165L767.926 134.855H765.873L771.645 118.764H774.046ZM772.846 120.675L769.747 129.597H775.945L772.846 120.675Z" fill="black"/>
<path d="M797.358 132.471V131.236H791.967V137H790.156V131.236H784.806V132.554H783.036V120.861H790.156V117.691L791.967 117.773C792.255 117.773 792.46 117.773 792.46 118.02C792.46 118.185 792.378 118.267 791.925 118.473V120.82H799.127V132.471H797.317H797.358ZM790.156 122.426H784.806V125.266H790.156V122.426ZM790.156 126.79H784.806V129.672H790.156V126.79ZM797.358 122.426H791.967V125.266H797.358V122.426ZM797.358 126.79H791.967V129.672H797.358V126.79Z" fill="black"/>
<path d="M802.345 122.744V121.388H809.845V122.744H802.345ZM807.525 136.712V135.644H804.583V137H803.05V129.852H809.058V136.712H807.525ZM803.34 119.909V118.595H808.809V119.909H803.34ZM803.34 125.661V124.305H808.809V125.661H803.34ZM803.34 128.455V127.14H808.809V128.455H803.34ZM807.525 131.248H804.583V134.247H807.525V131.248ZM809.555 125.949V124.634H814.776V123.237H810.798V122.046H814.776V120.731H810.094V119.416H814.776V117.691L816.599 117.773C816.599 117.773 817.055 117.773 817.055 118.061C817.055 118.348 816.807 118.348 816.434 118.471V119.416H821.24V120.731H816.434V122.046H820.619V123.237H816.434V124.634H821.655V125.949H809.514H809.555ZM816.434 137C816.434 136.261 816.061 135.521 815.936 135.275C816.724 135.439 817.387 135.439 817.635 135.439C818.671 135.439 818.671 135.233 818.671 134.165V133.426H812.456V137H810.84V127.222H820.287V134.905C820.287 136.712 819.293 137.082 816.392 136.959L816.434 137ZM818.713 128.496H812.497V129.769H818.713V128.496ZM818.713 130.92H812.497V132.234H818.713V130.92Z" fill="black"/>
<path d="M829.618 119.03C829.073 120.49 828.606 121.585 827.905 122.924C828.411 123.086 828.606 123.127 828.606 123.289C828.606 123.532 828.294 123.613 828.139 123.654V136.919H826.426V125.439C825.725 126.534 824.868 127.792 824.012 128.725C823.584 128.116 822.922 127.629 822.727 127.467C825.219 124.871 827.126 121.585 828.216 117.691L829.813 118.381C830.124 118.502 830.163 118.624 830.163 118.705C830.163 118.989 829.774 118.989 829.579 118.989L829.618 119.03ZM839.506 136.959C838.26 136.959 836.82 135.215 835.963 133.876C834.173 131.037 833.628 127.467 833.355 125.561L829.267 126.047L829.112 124.425L833.238 123.938C833.083 122.315 833.121 118.989 833.121 117.934L834.795 118.097C835.146 118.097 835.302 118.178 835.302 118.381C835.302 118.583 835.146 118.624 834.757 118.746C834.757 121.869 834.795 122.234 834.873 123.735L841.608 122.924L841.764 124.546L835.029 125.358C835.808 132.132 838.649 135.012 839.467 135.012C840.285 135.012 840.518 132.943 840.635 131.97C840.985 132.416 841.297 132.7 842.036 132.943C841.452 135.418 840.907 137 839.545 137L839.506 136.959ZM839.156 122.559C838.572 121.22 837.598 119.719 836.898 118.827L838.221 117.934C839.039 118.948 839.934 120.287 840.596 121.626C840.246 121.788 839.506 122.234 839.156 122.518V122.559Z" fill="black"/>
<path d="M850.849 123.598C849.971 124.942 848.854 126.286 848.655 126.531C848.854 126.612 849.173 126.694 849.173 126.857C849.173 127.06 848.854 127.142 848.734 127.183V137H847.019V128.242C846.061 129.219 845.383 129.83 844.426 130.604C844.027 130.116 843.588 129.708 843.109 129.423C846.021 127.305 848.694 124.209 849.811 122.05L851.248 122.946C851.248 122.946 851.527 123.15 851.527 123.313C851.527 123.638 851.208 123.598 850.849 123.557V123.598ZM850.37 119.157C850.37 119.157 850.25 119.157 850.051 119.117C848.176 121.316 846.779 122.539 844.665 124.046C844.226 123.476 843.628 123.068 843.348 122.864C845.423 121.642 847.777 119.524 849.093 117.691L850.49 118.669C850.49 118.669 850.729 118.832 850.729 118.954C850.729 119.117 850.569 119.198 850.41 119.198L850.37 119.157ZM859.147 125.838V134.067C859.147 136.552 858.07 136.919 854.998 136.878C854.798 135.819 854.599 135.452 854.36 135.045C855.317 135.208 855.915 135.208 855.995 135.208C857.352 135.208 857.352 134.841 857.352 134.108V125.838H851.288V124.209H862.418V125.838H859.107H859.147ZM852.125 120.298V118.669H861.66V120.298H852.125Z" fill="black"/>
<path d="M878.534 125.031V125.597C878.534 128.711 878.45 134.21 871.005 137C870.461 136.232 869.918 135.787 869.625 135.544C876.61 133.199 876.61 128.873 876.61 125.031H870.796V130.49H868.872V125.031H864.564V123.292H868.872V118.885L870.67 119.006C870.963 119.006 871.172 119.047 871.172 119.249C871.172 119.411 871.005 119.451 870.796 119.572V123.292H876.61V118.764L878.534 118.925C878.534 118.925 878.952 118.925 878.952 119.168C878.952 119.37 878.743 119.411 878.534 119.492V123.333H882.8V125.072H878.534V125.031Z" fill="black"/>
<path d="M886.018 128.418V126.273H903.182V128.418H886.018Z" fill="black"/>
<path d="M922.565 135.806C921.37 135.806 916.073 135.927 914.998 135.927C910.537 135.927 908.545 135.846 908.545 131.956V118.704L910.457 118.866C910.457 118.866 910.856 118.866 910.856 119.109C910.856 119.352 910.617 119.433 910.378 119.515V126.201C913.803 125.715 918.343 123.891 920.494 122.108L922.008 123.364C922.008 123.364 922.167 123.527 922.167 123.648C922.167 123.891 921.808 123.891 921.689 123.891C921.609 123.891 921.53 123.891 921.37 123.851C919.22 125.31 914.719 127.255 910.378 127.944V131.672C910.378 134.063 910.816 134.347 914.799 134.347C917.188 134.347 920.494 134.266 922.844 133.982C922.764 134.549 922.685 134.874 922.565 135.887V135.806ZM921.928 122.027C921.689 121.703 920.892 120.73 919.857 119.879L920.853 119.069C921.41 119.515 922.326 120.487 922.884 121.176C922.525 121.419 922.207 121.703 921.928 122.027ZM923.601 120.69C922.764 119.515 922.207 118.988 921.53 118.461L922.525 117.691C923.123 118.137 924.119 119.15 924.636 119.839C924.119 120.203 923.919 120.366 923.601 120.73V120.69Z" fill="black"/>
<path d="M943.549 135.649C941.754 133.106 939.551 130.842 936.981 129.054C935.308 131.239 932.126 134.179 927.965 135.927C927.598 135.212 927.353 134.855 926.782 134.338C928.699 133.663 935.757 130.882 938.817 121.664H928.618V119.995H939.143C939.47 119.995 940.245 119.956 940.571 119.836L941.591 120.79C941.142 121.346 940.857 122.022 940.816 122.141C940 124.088 939.143 125.995 937.919 127.703C939.918 129.054 942.815 131.517 945.018 134.179C944.284 134.815 944.161 134.894 943.549 135.609V135.649Z" fill="black"/>
<path d="M552.4 20.0728V47.0921C552.4 51.8066 550.793 55.4514 547.537 58.0266C544.282 60.6017 540.037 61.9091 534.762 61.9091C529.487 61.9091 525.16 60.6017 521.904 58.0266C518.648 55.4514 517 51.8066 517 47.0921V20.0728H526.973V47.0921C526.973 49.6276 527.632 51.4896 528.992 52.7178C530.352 53.9459 532.248 54.5402 534.721 54.5402C537.193 54.5402 539.089 53.9459 540.408 52.7178C541.726 51.4896 542.386 49.6276 542.386 47.0921V20.0728H552.359H552.4Z" fill="black"/>
<path d="M593.164 61.9091H583.633L568.565 35.2641H568.407V61.9091H558.836V20.0728H568.407L583.475 46.758H583.633V20.0728H593.164V61.9091Z" fill="black"/>
<path d="M610.327 61.9091H600.673V20.0728H610.327V61.9091Z" fill="black"/>
<path d="M646.8 27.5478H635.583V61.9091H625.713V27.5478H614.618V20.0728H646.8V27.5478Z" fill="black"/>
<path d="M677.098 44.0252H660.799V54.434H680.014V61.9091H651.091V20.0728H680.054V27.5478H660.799V36.5501H677.098V44.0252Z" fill="black"/>
<path d="M684.345 61.9091V20.0728H699.82C704.841 20.0728 709.081 21.6803 712.497 24.8954C715.871 28.1105 717.6 32.2097 717.6 37.2333V44.7486C717.6 49.7722 715.913 53.9116 712.497 57.0865C709.081 60.3016 704.883 61.8689 699.82 61.8689H684.345V61.9091ZM694.305 27.5478V54.434H699.121C701.755 54.434 703.854 53.5499 705.335 51.7816C706.817 50.0133 707.558 47.6823 707.558 44.7486V37.1529C707.558 34.2593 706.817 31.9284 705.335 30.1601C703.854 28.3918 701.755 27.5077 699.121 27.5077H694.305V27.5478Z" fill="black"/>
<path d="M760.317 50.3196C760.317 48.8359 759.833 47.713 758.824 46.911C757.856 46.1089 756.08 45.2668 753.538 44.3444C748.211 42.7003 744.297 40.8957 741.754 39.0109C739.172 37.086 737.921 34.359 737.921 30.7499C737.921 27.1407 739.454 24.4138 742.481 22.2483C745.548 20.0828 749.381 19 754.103 19C758.824 19 762.577 20.2031 765.563 22.5691C768.55 24.9351 769.962 28.0229 769.881 31.7524V31.9128H760.358C760.358 30.2687 759.793 28.9052 758.663 27.8625C757.533 26.8199 755.959 26.2986 753.982 26.2986C752.004 26.2986 750.471 26.7397 749.381 27.5818C748.251 28.424 747.727 29.5067 747.727 30.7499C747.727 31.993 748.292 32.9555 749.422 33.6773C750.552 34.3992 752.65 35.3215 755.757 36.4443C760.519 37.8479 764.111 39.6124 766.532 41.6576C768.953 43.7429 770.164 46.55 770.164 50.1592C770.164 53.7684 768.711 56.6958 765.846 58.7811C762.981 60.8664 759.147 61.9091 754.385 61.9091C749.624 61.9091 745.507 60.706 741.997 58.34C738.526 55.974 736.831 52.5252 736.912 48.0739V47.9135H746.476C746.476 50.3196 747.122 52.044 748.453 53.0867C749.745 54.1293 751.722 54.6506 754.385 54.6506C756.403 54.6506 757.896 54.2496 758.905 53.4476C759.914 52.6455 760.398 51.6029 760.398 50.2795L760.317 50.3196Z" fill="black"/>
<path d="M804.491 27.5478H793.274V61.9091H783.403V27.5478H772.309V20.0728H804.491V27.5478Z" fill="black"/>
<path d="M830.916 53.791H817.717L815.342 61.9091H805.564L819.085 20.0728H829.548L843.109 61.9091H833.33L830.956 53.791H830.916ZM819.85 46.3159H828.743L824.357 31.3658H824.196L819.85 46.3159Z" fill="black"/>
<path d="M875.291 27.5478H864.088V61.9091H854.23V27.5478H843.109V20.0728H875.25V27.5478H875.291Z" fill="black"/>
<path d="M905.589 44.0252H889.29V54.434H908.505V61.9091H879.582V20.0728H908.545V27.5478H889.25V36.5501H905.549V44.0252H905.589Z" fill="black"/>
<path d="M935.2 50.3196C935.2 48.8359 934.715 47.713 933.746 46.911C932.776 46.1089 930.998 45.2668 928.453 44.3444C923.12 42.7003 919.201 40.8957 916.655 39.0109C914.11 37.086 912.817 34.359 912.817 30.7499C912.817 27.1407 914.352 24.4138 917.382 22.2483C920.453 20.0828 924.291 19 929.019 19C933.746 19 937.503 20.2031 940.453 22.5691C943.443 24.9351 944.857 28.0229 944.776 31.7524V31.9128H935.241C935.241 30.2687 934.675 28.9052 933.544 27.8625C932.412 26.8199 930.837 26.2986 928.817 26.2986C926.796 26.2986 925.301 26.7397 924.211 27.5818C923.079 28.424 922.554 29.5067 922.554 30.7499C922.554 31.993 923.12 32.9555 924.251 33.6773C925.382 34.3992 927.483 35.3215 930.594 36.4443C935.362 37.8479 938.958 39.6124 941.382 41.6576C943.806 43.7429 945.018 46.55 945.018 50.1592C945.018 53.7684 943.564 56.6958 940.695 58.7811C937.827 60.8664 933.988 61.9091 929.261 61.9091C924.534 61.9091 920.372 60.706 916.857 58.34C913.383 55.974 911.686 52.5252 911.766 48.0739L911.847 47.9135H921.342C921.342 50.3196 921.988 52.044 923.322 53.0867C924.615 54.1293 926.635 54.6506 929.261 54.6506C931.281 54.6506 932.776 54.2496 933.786 53.4476C934.796 52.6455 935.281 51.6029 935.281 50.2795L935.2 50.3196Z" fill="black"/>
<path d="M533.091 81.3612H526.426V100.527H523.626V81.3612H517V79.0728H533.091V81.3612Z" fill="black"/>
<path d="M543.395 87.2329L542.008 87.1519C541.277 87.1519 540.66 87.314 540.198 87.6788C539.698 88.0436 539.313 88.5299 539.043 89.219V100.527H536.309V84.72H538.774L539.043 87.0303C539.467 86.2197 540.006 85.5712 540.622 85.1253C541.238 84.6795 541.97 84.4363 542.778 84.4363C542.971 84.4363 543.164 84.4363 543.356 84.4768C543.549 84.4768 543.703 84.5579 543.818 84.5984L543.433 87.2735L543.395 87.2329Z" fill="black"/>
<path d="M555.954 100.209C555.875 99.7326 555.796 99.3353 555.756 98.9777C555.717 98.6201 555.677 98.2625 555.677 97.905C555.164 98.6598 554.493 99.2955 553.624 99.7723C552.755 100.249 551.887 100.527 550.899 100.527C549.281 100.527 548.056 100.13 547.227 99.2955C546.398 98.4612 545.964 97.3487 545.964 95.8787C545.964 94.4087 546.556 93.2565 547.741 92.4221C548.925 91.5878 550.544 91.1508 552.597 91.1508H555.638V89.6013C555.638 88.6875 555.361 87.9723 554.809 87.4558C554.256 86.9393 553.466 86.6612 552.479 86.6612C551.571 86.6612 550.86 86.8996 550.268 87.3366C549.715 87.8134 549.399 88.3696 549.399 89.0053H546.714V88.9258C546.635 87.8134 547.148 86.7804 548.293 85.8268C549.399 84.8733 550.86 84.4363 552.637 84.4363C554.414 84.4363 555.796 84.8733 556.862 85.7871C557.928 86.7009 558.441 87.9723 558.441 89.641V97.1104C558.441 97.6666 558.441 98.1831 558.52 98.6996C558.56 99.2161 558.678 99.7326 558.836 100.209H555.954ZM551.294 98.1434C552.321 98.1434 553.229 97.8652 554.058 97.3487C554.888 96.8322 555.401 96.2363 555.638 95.5609V93.0578H552.479C551.334 93.0578 550.426 93.3359 549.754 93.9319C549.083 94.4881 548.728 95.1635 548.728 95.9582C548.728 96.6336 548.925 97.1898 549.359 97.5871C549.794 97.9844 550.426 98.1831 551.255 98.1831L551.294 98.1434Z" fill="black"/>
<path d="M567.731 95.7824L567.975 96.8964H568.056L568.341 95.7824L572 84.4363H574.927L569.073 100.527H566.877L560.982 84.4363H563.95L567.69 95.7824H567.731Z" fill="black"/>
<path d="M584.062 100.488C581.93 100.488 580.192 99.7742 578.968 98.3474C577.705 96.9206 577.073 95.0579 577.073 92.7592V92.125C577.073 89.9056 577.744 88.0825 579.047 86.6161C580.35 85.1497 581.89 84.4363 583.667 84.4363C585.76 84.4363 587.3 85.0704 588.366 86.3387C589.432 87.6069 589.945 89.2715 589.945 91.372V93.1159H579.955V93.1951C579.955 94.6615 580.311 95.8901 581.021 96.8413C581.732 97.7925 582.759 98.2681 584.062 98.2681C585.01 98.2681 585.839 98.1492 586.55 97.8718C587.26 97.5944 587.892 97.2377 588.405 96.7621L589.511 98.5852C588.958 99.14 588.248 99.576 587.339 99.9723C586.431 100.329 585.326 100.527 584.062 100.527V100.488ZM583.667 86.6557C582.719 86.6557 581.93 87.052 581.258 87.8447C580.587 88.6374 580.192 89.6282 580.034 90.8172V90.8964H587.142V90.5397C587.142 89.43 586.865 88.5185 586.273 87.7654C585.681 87.0124 584.812 86.6557 583.667 86.6557Z" fill="black"/>
<path d="M596.382 100.527H593.164V78H596.382V100.527Z" fill="black"/>
<path d="M620.269 95.0104H611.113L609.033 100.527H606.036L614.484 79.0728H617.023L625.345 100.527H622.349L620.31 95.0104H620.269ZM612.029 92.5585H619.395L615.774 82.7915H615.691L612.029 92.5585Z" fill="black"/>
<path d="M637.602 97.8993C637.115 98.7483 636.465 99.3952 635.694 99.8399C634.922 100.285 633.988 100.527 632.973 100.527C631.227 100.527 629.887 99.9612 628.953 98.8696C627.978 97.778 627.491 96.08 627.491 93.7351V84.4363H630.374V93.7755C630.374 95.4735 630.618 96.6055 631.105 97.2524C631.592 97.8993 632.364 98.1823 633.42 98.1823C634.476 98.1823 635.288 97.9801 635.978 97.5758C636.628 97.1715 637.156 96.5651 637.481 95.8374V84.4767H640.364V100.244H637.765L637.562 97.8993H637.602Z" fill="black"/>
<path d="M648 81.2183V84.8999H651.009V86.9757H648V96.2582C648 96.9632 648.162 97.4724 648.447 97.7857C648.773 98.0599 649.179 98.2165 649.667 98.2165C649.83 98.2165 650.033 98.2165 650.196 98.1774C650.399 98.1774 650.562 98.099 650.725 98.0207L651.091 99.9399C650.887 100.097 650.562 100.253 650.155 100.371C649.749 100.488 649.301 100.527 648.895 100.527C647.715 100.527 646.78 100.175 646.088 99.509C645.397 98.8432 645.031 97.7465 645.031 96.2974V87.0149H642.509V84.9391H645.031V81.2574H647.918L648 81.2183Z" fill="black"/>
<path d="M658.016 86.9789C658.499 86.2173 659.13 85.6561 659.872 85.2151C660.614 84.7742 661.393 84.5738 662.284 84.5738C663.842 84.5738 665.03 85.0949 665.883 86.097C666.737 87.0991 667.182 88.6223 667.182 90.7067V100.487H664.547V90.6666C664.547 89.3839 664.288 88.4219 663.768 87.8206C663.249 87.2194 662.469 86.8987 661.467 86.8987C660.725 86.8987 660.057 87.0991 659.464 87.4599C658.87 87.8206 658.388 88.3417 658.016 88.9831V100.527H655.382V78H658.016V87.0189V86.9789Z" fill="black"/>
<path d="M671.512 92.3232C671.512 90.0245 672.15 88.1618 673.385 86.6557C674.62 85.1893 676.334 84.4363 678.445 84.4363C680.557 84.4363 682.31 85.1893 683.545 86.6557C684.781 88.1221 685.418 90.0245 685.418 92.3232V92.6403C685.418 94.939 684.781 96.8413 683.545 98.3077C682.31 99.7742 680.597 100.527 678.445 100.527C676.294 100.527 674.62 99.7742 673.345 98.3077C672.11 96.8413 671.473 94.939 671.473 92.6403V92.3232H671.512ZM674.341 92.6403C674.341 94.2652 674.7 95.6127 675.377 96.6828C676.095 97.7529 677.091 98.2681 678.485 98.2681C679.88 98.2681 680.876 97.7529 681.553 96.6828C682.27 95.6127 682.589 94.2652 682.589 92.6403V92.3232C682.589 90.6983 682.231 89.3507 681.553 88.2807C680.876 87.2106 679.84 86.6557 678.445 86.6557C677.051 86.6557 676.055 87.2106 675.377 88.2807C674.7 89.3507 674.341 90.6983 674.341 92.3232V92.6403Z" fill="black"/>
<path d="M695.722 87.2329L694.336 87.1519C693.604 87.1519 692.988 87.314 692.526 87.6788C692.025 88.0436 691.64 88.5299 691.371 89.219V100.527H688.636V84.72H691.101L691.371 87.0303C691.794 86.2197 692.333 85.5712 692.949 85.1253C693.566 84.6795 694.297 84.4363 695.106 84.4363C695.298 84.4363 695.529 84.4363 695.683 84.4768C695.876 84.4768 696.03 84.5579 696.146 84.5984L695.76 87.2735L695.722 87.2329Z" fill="black"/>
<path d="M702.582 80.8861H699.364V78H702.582V80.8861ZM702.582 100.527H699.364V84.8945H702.582V100.527Z" fill="black"/>
<path d="M709.33 98.2167H718.673V100.527H705.8V98.4643L714.562 86.7468H705.925V84.4363H718.174V86.4167L709.33 98.2167Z" fill="black"/>
<path d="M730.848 100.209C730.769 99.7326 730.69 99.3353 730.611 98.9777C730.571 98.6201 730.532 98.2625 730.532 97.905C730.019 98.6598 729.308 99.2955 728.479 99.7723C727.649 100.249 726.741 100.527 725.754 100.527C724.135 100.527 722.911 100.13 722.082 99.2955C721.252 98.4612 720.818 97.3487 720.818 95.8787C720.818 94.4087 721.41 93.2565 722.595 92.4221C723.78 91.5878 725.399 91.1508 727.452 91.1508H730.492V89.6013C730.492 88.6875 730.216 87.9723 729.663 87.4558C729.11 86.9393 728.321 86.6612 727.333 86.6612C726.425 86.6612 725.715 86.8996 725.122 87.3366C724.569 87.8134 724.254 88.3696 724.254 89.0053H721.568V88.9258C721.489 87.8134 722.003 86.7804 723.148 85.8268C724.254 84.8733 725.714 84.4363 727.491 84.4363C729.268 84.4363 730.65 84.8733 731.717 85.7871C732.783 86.7009 733.296 87.9723 733.296 89.641V97.1104C733.296 97.6666 733.296 98.1831 733.375 98.6996C733.414 99.2161 733.533 99.7326 733.691 100.209H730.808H730.848ZM726.188 98.1434C727.215 98.1434 728.123 97.8652 728.952 97.3487C729.782 96.8322 730.295 96.2363 730.532 95.5609V93.0578H727.373C726.228 93.0578 725.359 93.3359 724.648 93.9319C723.977 94.4881 723.622 95.1635 723.622 95.9582C723.622 96.6336 723.819 97.1898 724.254 97.5871C724.688 97.9844 725.32 98.1831 726.149 98.1831L726.188 98.1434Z" fill="black"/>
<path d="M741.327 81.2183V84.8999H744.337V86.9757H741.327V96.2582C741.327 96.9632 741.49 97.4724 741.775 97.7857C742.1 98.0599 742.507 98.2165 742.995 98.2165C743.157 98.2165 743.361 98.2165 743.523 98.1774C743.727 98.1774 743.89 98.099 744.052 98.0207L744.418 99.9399C744.215 100.097 743.89 100.253 743.483 100.371C743.076 100.488 742.669 100.527 742.222 100.527C741.042 100.527 740.107 100.175 739.416 99.509C738.724 98.8432 738.358 97.7465 738.358 96.2974V87.0149H735.836V84.9391H738.358V81.2574H741.246L741.327 81.2183Z" fill="black"/>
<path d="M750.854 80.8861H748.709V78H750.854V80.8861ZM750.854 100.527H748.709V84.8945H750.854V100.527Z" fill="black"/>
<path d="M755.185 92.3232C755.185 90.0245 755.783 88.1618 757.058 86.6557C758.293 85.1893 760.006 84.4363 762.118 84.4363C764.23 84.4363 765.983 85.1893 767.218 86.6557C768.453 88.1221 769.091 90.0245 769.091 92.3232V92.6403C769.091 94.939 768.493 96.8413 767.218 98.3077C765.983 99.7742 764.27 100.527 762.118 100.527C759.967 100.527 758.253 99.7742 757.018 98.3077C755.783 96.8413 755.146 94.939 755.146 92.6403V92.3232H755.185ZM758.014 92.6403C758.014 94.2652 758.373 95.6127 759.05 96.6828C759.728 97.7529 760.764 98.2681 762.158 98.2681C763.553 98.2681 764.549 97.7529 765.226 96.6828C765.943 95.6127 766.262 94.2652 766.262 92.6403V92.3232C766.262 90.6983 765.903 89.3507 765.226 88.2807C764.509 87.2106 763.513 86.6557 762.118 86.6557C760.724 86.6557 759.728 87.2106 759.05 88.2807C758.333 89.3507 758.014 90.6983 758.014 92.3232V92.6403Z" fill="black"/>
<path d="M774.875 84.72L775.079 87.0708C775.609 86.2196 776.261 85.5711 777.075 85.1253C777.89 84.6389 778.786 84.4363 779.805 84.4363C781.516 84.4363 782.86 84.9227 783.797 85.9359C784.734 86.9492 785.182 88.4894 785.182 90.5565V100.527H782.289V90.597C782.289 89.219 782.004 88.2057 781.475 87.6383C780.904 87.0708 780.09 86.7466 778.949 86.7466C778.134 86.7466 777.401 86.9492 776.749 87.3545C776.098 87.7598 775.609 88.2867 775.201 88.9758V100.487H772.309V84.6795H774.875V84.72Z" fill="black"/>
<path d="M809.069 95.0104H799.913L797.833 100.527H794.836L803.284 79.0728H805.823L814.146 100.527H811.149L809.11 95.0104H809.069ZM800.829 92.5585H808.195L804.574 82.7915H804.491L800.829 92.5585Z" fill="black"/>
<path d="M830.236 93.3567C830.236 95.6588 829.69 97.5498 828.556 98.9475C827.422 100.386 825.868 101.085 823.852 101.085C822.844 101.085 821.962 100.921 821.206 100.592C820.449 100.263 819.777 99.7696 819.273 99.1119V106.964H816.291V84.7651H818.559L819.021 86.8205C819.567 86.0395 820.239 85.464 821.038 85.0529C821.836 84.6418 822.76 84.4363 823.81 84.4363C825.826 84.4363 827.422 85.2173 828.556 86.8205C829.69 88.3827 830.236 90.4792 830.236 93.069V93.3979V93.3567ZM827.212 93.0279C827.212 91.2191 826.834 89.6981 826.12 88.5471C825.364 87.355 824.314 86.7794 822.886 86.7794C822.004 86.7794 821.29 86.985 820.701 87.355C820.071 87.7249 819.609 88.2593 819.231 88.9171V96.6454C819.609 97.3031 820.113 97.8375 820.701 98.2075C821.332 98.5775 822.046 98.7419 822.928 98.7419C824.356 98.7419 825.406 98.2486 826.12 97.2209C826.834 96.2343 827.212 94.9189 827.212 93.3156V93.0279Z" fill="black"/>
<path d="M846.25 93.3567C846.25 95.6588 845.747 97.5498 844.704 98.9475C843.66 100.386 842.23 101.085 840.413 101.085C839.485 101.085 838.673 100.921 837.977 100.592C837.282 100.263 836.663 99.7696 836.199 99.1119V106.964H833.455V84.7651H835.581L836.006 86.8205C836.508 86.0395 837.127 85.464 837.861 85.0529C838.596 84.6418 839.446 84.4363 840.413 84.4363C842.268 84.4363 843.737 85.2173 844.781 86.8205C845.825 88.3827 846.327 90.4792 846.327 93.069V93.3979L846.25 93.3567ZM843.505 93.0279C843.505 91.2191 843.157 89.6981 842.5 88.5471C841.843 87.355 840.838 86.7794 839.524 86.7794C838.751 86.7794 838.055 86.985 837.514 87.355C836.934 87.7249 836.508 88.2593 836.161 88.9171V96.6454C836.508 97.3031 836.934 97.8375 837.514 98.2075C838.055 98.5775 838.751 98.7419 839.562 98.7419C840.877 98.7419 841.843 98.2486 842.5 97.2209C843.157 96.2343 843.505 94.9189 843.505 93.3156V93.0279Z" fill="black"/>
<path d="M852.764 100.527H850.618V78H852.764V100.527Z" fill="black"/>
<path d="M860.273 80.8861H858.127V78H860.273V80.8861ZM860.273 100.527H858.127V84.8945H860.273V100.527Z" fill="black"/>
<path d="M871.41 98.3077C872.349 98.3077 873.131 98.0303 873.835 97.4358C874.54 96.881 874.892 96.1676 874.892 95.3353H877.395V95.4146C877.474 96.7621 876.887 97.9114 875.674 98.9815C874.461 100.012 873.053 100.527 871.41 100.527C869.18 100.527 867.498 99.7742 866.324 98.3077C865.151 96.8413 864.564 94.9786 864.564 92.7592V92.1647C864.564 89.9452 865.151 88.1221 866.324 86.6557C867.498 85.1893 869.219 84.4363 871.41 84.4363C873.209 84.4363 874.657 84.9515 875.791 86.0216C876.926 87.0917 877.474 88.3996 877.434 89.9452V90.0245H874.892C874.892 89.0733 874.579 88.2807 873.914 87.6069C873.249 86.9332 872.427 86.6161 871.41 86.6161C869.962 86.6161 868.906 87.1313 868.28 88.2014C867.654 89.2715 867.341 90.5794 867.341 92.0854V92.6799C867.341 94.2652 867.654 95.5731 868.28 96.6432C868.906 97.7133 869.962 98.2285 871.41 98.2285V98.3077Z" fill="black"/>
<path d="M890.654 100.209C890.575 99.7326 890.496 99.3353 890.417 98.9777C890.378 98.6201 890.339 98.2625 890.339 97.905C889.827 98.6598 889.118 99.2955 888.292 99.7723C887.465 100.289 886.559 100.527 885.575 100.527C883.961 100.527 882.741 100.13 881.914 99.2955C881.088 98.4612 880.655 97.3487 880.655 95.8787C880.655 94.4087 881.245 93.2565 882.426 92.4221C883.607 91.5878 885.221 91.1508 887.268 91.1508H890.299V89.6013C890.299 88.6875 890.024 87.9723 889.473 87.4558C888.921 86.9393 888.134 86.6612 887.15 86.6612C886.245 86.6612 885.536 86.8996 884.945 87.3366C884.394 87.8134 884.119 88.3696 884.119 89.0053H881.442V88.9258C881.363 87.8134 881.875 86.7804 883.016 85.8268C884.119 84.8733 885.575 84.4363 887.347 84.4363C889.118 84.4363 890.496 84.8733 891.559 85.7871C892.622 86.7009 893.134 87.9723 893.134 89.641V97.1104C893.134 97.6666 893.134 98.1831 893.212 98.6996C893.252 99.2161 893.37 99.7326 893.527 100.209H890.654ZM886.008 98.1434C887.032 98.1434 887.937 97.8652 888.764 97.3487C889.591 96.8322 890.102 96.2363 890.339 95.5609V93.0578H887.189C886.048 93.0578 885.142 93.3359 884.473 93.9319C883.804 94.4881 883.45 95.1635 883.45 95.9582C883.45 96.6336 883.646 97.1898 884.079 97.5871C884.512 97.9844 885.142 98.1831 885.969 98.1831L886.008 98.1434Z" fill="black"/>
<path d="M901.164 81.2183V84.8999H904.173V86.9757H901.164V96.2582C901.164 96.9632 901.326 97.4724 901.611 97.7857C901.936 98.0599 902.343 98.2165 902.831 98.2165C902.994 98.2165 903.157 98.2165 903.36 98.1774C903.563 98.1774 903.726 98.099 903.889 98.0207L904.255 99.9399C904.051 100.097 903.726 100.253 903.319 100.371C902.913 100.488 902.506 100.527 902.058 100.527C900.879 100.527 899.943 100.175 899.252 99.509C898.561 98.8432 898.195 97.7465 898.195 96.2974V87.0149H895.673V84.9391H898.195V81.2574H901.082L901.164 81.2183Z" fill="black"/>
<path d="M910.691 80.8861H907.473V78H910.691V80.8861ZM910.691 100.527H907.473V84.8945H910.691V100.527Z" fill="black"/>
<path d="M915.022 92.3232C915.022 90.0245 915.619 88.1618 916.894 86.6557C918.13 85.1893 919.843 84.4363 921.955 84.4363C924.066 84.4363 925.82 85.1893 927.055 86.6557C928.29 88.1221 928.927 90.0245 928.927 92.3232V92.6403C928.927 94.939 928.29 96.8413 927.055 98.3077C925.82 99.7742 924.106 100.527 921.955 100.527C919.803 100.527 918.09 99.7742 916.855 98.3077C915.619 96.8413 914.982 94.939 914.982 92.6403V92.3232H915.022ZM917.851 92.6403C917.851 94.2652 918.209 95.6127 918.887 96.6828C919.564 97.7529 920.6 98.2681 921.995 98.2681C923.389 98.2681 924.385 97.7529 925.063 96.6828C925.78 95.6127 926.098 94.2652 926.098 92.6403V92.3232C926.098 90.6983 925.74 89.3507 925.063 88.2807C924.385 87.2106 923.309 86.6557 921.955 86.6557C920.6 86.6557 919.604 87.2106 918.887 88.2807C918.209 89.3507 917.851 90.6983 917.851 92.3232V92.6403Z" fill="black"/>
<path d="M934.671 84.72L934.875 87.0708C935.404 86.2196 936.056 85.5711 936.871 85.1253C937.686 84.6389 938.582 84.4363 939.6 84.4363C941.311 84.4363 942.655 84.9227 943.592 85.9359C944.529 86.9492 945.018 88.4894 945.018 90.5565V100.527H942.126V90.597C942.126 89.219 941.841 88.2057 941.311 87.6383C940.741 87.0708 939.926 86.7466 938.786 86.7466C937.93 86.7466 937.197 86.9492 936.586 87.3545C935.934 87.7598 935.445 88.2867 935.038 88.9758V100.487H932.146V84.6795H934.753L934.671 84.72Z" fill="black"/>
<defs>
<clipPath id="clip0_868_1494">
<rect width="469" height="140" fill="white"/>
</clipPath>
</defs>
</svg>
