<svg width="118" height="75" viewBox="0 0 118 75" fill="none" xmlns="http://www.w3.org/2000/svg">
<path d="M112.558 0.0200195H5.44077C2.54594 0.0200195 0.199219 2.36304 0.199219 5.25331V69.1867C0.199219 72.077 2.54594 74.42 5.44077 74.42H112.558C115.452 74.42 117.799 72.077 117.799 69.1867V5.25331C117.799 2.36304 115.452 0.0200195 112.558 0.0200195Z" fill="#E0E1DF"/>
<path d="M117.799 10.7337H0.199219V22.465H117.799V10.7337Z" fill="#5A5A5A"/>
<path d="M107.01 35.65H85.4472V49.7508H107.01V35.65Z" fill="#CEB519"/>
<path d="M24.4123 35.65H11.3812V40.8252H24.4123V35.65Z" fill="#8A8A8C"/>
<path d="M39.8457 35.65H26.8146V40.8252H39.8457V35.65Z" fill="#8A8A8C"/>
<path d="M57.8563 35.65H53.3427V40.8252H57.8563V35.65Z" fill="#8A8A8C"/>
<path d="M50.9258 35.65H42.2481V40.8252H50.9258V35.65Z" fill="#8A8A8C"/>
<path d="M68.9654 35.65H60.2878V40.8252H68.9654V35.65Z" fill="#8A8A8C"/>
</svg>
