<svg width="178" height="78" viewBox="0 0 178 78" fill="none" xmlns="http://www.w3.org/2000/svg">
<path d="M11.205 0.820068V77.6201H177.799V0.820068H11.205ZM139.957 9.28489H145.8V13.3024H139.957V9.28489ZM148.721 17.2452V21.2627H142.878V17.2452H148.721ZM125.597 9.28489H136.829V13.3024H125.597V9.28489ZM83.0817 9.28489H85.1359V21.6738H83.0817V9.28489ZM78.6907 9.28489H80.7449V21.6738H78.6907V9.28489ZM74.2809 9.28489H76.335V21.6738H74.2809V9.28489ZM68.1749 9.28489H71.944V21.6738H68.1749V9.28489ZM63.7651 9.28489H65.8192V21.6738H63.7651V9.28489ZM59.3741 9.28489H61.4282V21.6738H59.3741V9.28489ZM53.2493 9.28489H57.0184V21.6738H53.2493V9.28489ZM48.8394 9.28489H50.8936V21.6738H48.8394V9.28489ZM38.4744 9.28489H46.5215V21.6738H38.4744V9.28489ZM32.3496 9.28489H36.1187V21.6738H32.3496V9.28489ZM27.9398 9.28489H29.994V21.6738H27.9398V9.28489ZM25.6029 21.6738H21.8339V9.28489H25.6029V21.6738ZM88.8484 42.5088V42.5649C88.3396 43.5553 84.7401 46.0592 83.044 47.1991C82.3091 47.7036 81.5175 48.096 80.6883 48.4136C79.1807 48.9742 77.07 49.6656 76.4104 49.8525L66.2904 52.8423C66.2904 52.8423 66.2715 52.917 66.2527 52.9544C66.215 53.0665 66.1773 53.1973 66.1208 53.3281C66.1019 53.4028 66.0642 53.4776 66.0454 53.5523C66.0077 53.6645 65.97 53.7953 65.9135 53.9261C65.8946 54.0008 65.8569 54.0755 65.8381 54.169C65.8004 54.2998 65.7439 54.4306 65.7062 54.5801C65.6873 54.6548 65.6496 54.7296 65.6308 54.7856C65.5931 54.9164 65.5366 55.0285 65.4989 55.1593C65.4612 55.2528 65.4423 55.3275 65.4046 55.4209C65.367 55.5331 65.3293 55.6639 65.2727 55.776C65.235 55.8694 65.1973 55.9628 65.1785 56.0563C65.1408 56.1684 65.0843 56.2992 65.0466 56.4113C65.0089 56.5047 64.9712 56.6169 64.9335 56.7103C64.8958 56.8411 64.8393 56.9719 64.8016 57.084C64.7639 57.1774 64.7262 57.2709 64.7074 57.3643C64.6508 57.4951 64.6131 57.6259 64.5566 57.7567C64.5189 57.8501 64.5001 57.9249 64.4624 58.0183C64.4247 58.1491 64.3681 58.2612 64.3116 58.392C64.2739 58.4855 64.2362 58.5789 64.1985 58.691C64.1608 58.8031 64.1043 58.9153 64.0666 59.0461C64.0289 59.1395 63.9912 59.2516 63.9535 59.345C63.9159 59.4572 63.8593 59.5693 63.8216 59.6814C63.7839 59.7935 63.7462 59.8869 63.6897 59.9991C63.652 60.1112 63.5955 60.2046 63.5578 60.3167C63.5201 60.4288 63.4636 60.5223 63.4259 60.6344C63.3882 60.7465 63.3316 60.8399 63.2939 60.952C63.2563 61.0455 63.1997 61.1576 63.162 61.251C63.1243 61.3631 63.0678 61.4566 63.0301 61.5687C62.9924 61.6621 62.9359 61.7555 62.8982 61.849C62.8417 61.9611 62.804 62.0545 62.7474 62.1666C62.7097 62.2601 62.672 62.3348 62.6344 62.4282C62.5778 62.5404 62.5401 62.6338 62.4836 62.7459C62.4459 62.8207 62.4082 62.9141 62.3705 62.9888C62.314 63.0823 62.2763 63.1757 62.2198 63.2691C62.1821 63.3439 62.1444 63.4373 62.0878 63.512C62.0501 63.6055 61.9936 63.6802 61.9559 63.7736C61.9182 63.8484 61.8617 63.9418 61.824 64.0166C61.7675 64.0913 61.7298 64.1847 61.6732 64.2595C61.6355 64.3342 61.5979 64.409 61.5413 64.465C61.4848 64.5398 61.4471 64.6145 61.3906 64.6893C61.3529 64.7453 61.3152 64.8201 61.2775 64.8761C61.2209 64.9509 61.1833 65.0256 61.1267 65.1004C61.089 65.1564 61.0513 65.2125 61.0136 65.2499C60.9571 65.3246 60.9006 65.3807 60.844 65.4554C60.8063 65.4928 60.7875 65.5488 60.7498 65.5862C60.6933 65.6423 60.6367 65.6983 60.599 65.7731C60.5613 65.8104 60.5425 65.8478 60.5048 65.8852C60.4483 65.9412 60.3917 65.9973 60.3352 66.0347C60.2975 66.0534 60.2787 66.0907 60.241 66.1094C60.1844 66.1468 60.1279 66.1842 60.0902 66.2215C60.0714 66.2402 60.0337 66.2589 60.0148 66.2776C59.9394 66.3336 59.8641 66.371 59.7698 66.3897C56.7546 67.5482 56.095 66.2589 56.7357 63.0449C56.8865 62.2788 57.0561 61.4566 57.2257 60.6344C57.2257 60.6157 57.2257 60.5783 57.2257 60.5596C57.2445 60.4662 57.2634 60.3541 57.2822 60.2607C57.3765 59.7935 57.4895 59.3077 57.5838 58.8405C57.678 58.4107 57.7722 57.9809 57.8664 57.5512C57.9607 57.1401 58.0361 56.7477 58.1303 56.3553C58.168 56.1684 58.2057 56.0002 58.2434 55.832C58.2434 55.7573 58.281 55.6639 58.2999 55.5891C58.3187 55.4583 58.3564 55.3462 58.3753 55.2341L47.1245 57.738C45.8996 57.9996 44.6746 58.1304 43.4119 58.1304L38.286 58.0744C36.4014 58.0744 34.6299 57.1588 33.5181 55.6452L27.9586 48.1334C27.6194 47.7223 27.6948 47.1056 28.1094 46.844C28.7878 46.4142 29.8997 45.9658 31.2189 46.2834C33.1035 46.7319 37.796 50.1141 39.4355 51.2539L61.5225 44.2093C61.7675 43.032 63.0113 36.8469 63.6897 34.1748C64.5378 30.83 65.8192 31.8017 67.0254 32.6612C68.2126 33.5021 68.0242 36.7348 68.043 42.1351L74.1113 40.2104C76.3539 39.5004 78.7473 39.2948 81.0841 39.6125L87.7366 40.5468C88.6977 40.6963 89.2442 41.724 88.8108 42.5836L88.8484 42.5088ZM91.2607 21.6738H87.4916V9.28489H91.2607V21.6738ZM131.439 21.2627H125.597V17.2452H131.439V21.2627ZM134.568 17.2452H140.41V21.2627H134.568V17.2452ZM160.16 66.67H136.829V43.5366H160.16V66.67ZM160.16 21.2627H151.434V17.2452H160.16V21.2627ZM160.16 13.2837H148.928V9.2662H160.16V13.2837Z" fill="#E2E1E2"/>
<path d="M158.275 45.4052H138.714V64.8014H158.275V45.4052Z" fill="#E2E1E2"/>
<path d="M0.199219 0.820068V77.6201H11.205V0.820068H0.199219Z" fill="#2B94D2"/>
<path d="M46.5215 9.28489H38.4744V21.6738H46.5215V9.28489Z" fill="#2B94D2"/>
<path d="M29.994 9.28489H27.9398V21.6738H29.994V9.28489Z" fill="#2B94D2"/>
<path d="M80.7449 9.28489H78.6907V21.6738H80.7449V9.28489Z" fill="#2B94D2"/>
<path d="M85.1359 9.28489H83.0817V21.6738H85.1359V9.28489Z" fill="#2B94D2"/>
<path d="M65.8192 9.28489H63.7651V21.6738H65.8192V9.28489Z" fill="#2B94D2"/>
<path d="M61.4282 9.28489H59.3741V21.6738H61.4282V9.28489Z" fill="#2B94D2"/>
<path d="M50.8936 9.28489H48.8394V21.6738H50.8936V9.28489Z" fill="#2B94D2"/>
<path d="M76.335 9.28489H74.2809V21.6738H76.335V9.28489Z" fill="#2B94D2"/>
<path d="M25.6029 9.28489H21.8339V21.6738H25.6029V9.28489Z" fill="#2B94D2"/>
<path d="M36.1187 9.28489H32.3496V21.6738H36.1187V9.28489Z" fill="#2B94D2"/>
<path d="M91.2607 9.28489H87.4916V21.6738H91.2607V9.28489Z" fill="#2B94D2"/>
<path d="M57.0184 9.28489H53.2493V21.6738H57.0184V9.28489Z" fill="#2B94D2"/>
<path d="M71.944 9.28489H68.1749V21.6738H71.944V9.28489Z" fill="#2B94D2"/>
<path d="M87.7743 40.472L81.1218 39.5377C78.7849 39.2201 76.4104 39.4069 74.149 40.1357L68.0807 42.0604C68.0807 36.6601 68.2692 33.4274 67.063 32.5865C65.8381 31.7269 64.5754 30.7552 63.7274 34.1001C63.049 36.7722 61.7863 42.9573 61.5602 44.1345L39.4732 51.1792C37.8337 50.0393 33.1412 46.6572 31.2566 46.2087C29.9374 45.891 28.8444 46.3582 28.1471 46.7693C27.7325 47.0309 27.6571 47.6475 27.9963 48.0586L33.5558 55.5704C34.6676 57.084 36.4391 57.9809 38.3237 57.9996L43.4496 58.0557C44.6934 58.0557 45.9372 57.9436 47.1622 57.6633L58.413 55.1593C58.3941 55.2715 58.3564 55.4023 58.3376 55.5144C58.3376 55.5891 58.2999 55.6826 58.281 55.7573C58.2434 55.9255 58.2057 56.1123 58.168 56.2805C58.0737 56.6729 57.9984 57.0653 57.9041 57.4764C57.8099 57.9062 57.7157 58.336 57.6215 58.7658C57.5272 59.2329 57.4142 59.7188 57.3199 60.1859C57.3011 60.2793 57.2822 60.3915 57.2634 60.4849C57.2634 60.5036 57.2634 60.5409 57.2634 60.5596C57.0938 61.3818 56.9242 62.204 56.7734 62.9701C56.1327 66.1655 56.7734 67.4548 59.8075 66.315C59.8829 66.2776 59.9583 66.2402 60.0525 66.2029C60.0714 66.2029 60.1091 66.1655 60.1279 66.1468C60.1844 66.1094 60.241 66.0721 60.2787 66.0347C60.3164 66.016 60.3352 65.9786 60.3729 65.9599C60.4294 65.9039 60.486 65.8665 60.5425 65.8104C60.5802 65.7731 60.599 65.7357 60.6367 65.6983C60.6933 65.6423 60.7498 65.5862 60.7875 65.5115C60.8252 65.4741 60.844 65.4367 60.8817 65.3807C60.9383 65.3059 60.9948 65.2498 61.0513 65.1751C61.089 65.119 61.1267 65.0817 61.1644 65.0256C61.2209 64.9509 61.2586 64.8761 61.3152 64.8014C61.3529 64.7453 61.3906 64.6706 61.4282 64.6145C61.4848 64.5398 61.5225 64.465 61.579 64.3903C61.6167 64.3155 61.6544 64.2408 61.7109 64.1847C61.7675 64.11 61.8052 64.0353 61.8617 63.9418C61.8994 63.8671 61.9559 63.7923 61.9936 63.6989C62.0313 63.6055 62.0878 63.5307 62.1255 63.4373C62.1632 63.3626 62.2009 63.2691 62.2575 63.1944C62.314 63.101 62.3517 63.0075 62.4082 62.9141C62.4459 62.8393 62.4836 62.7646 62.5213 62.6712C62.5778 62.559 62.6155 62.4656 62.6721 62.3535C62.7097 62.2788 62.7474 62.1853 62.7851 62.0919C62.8417 61.9798 62.8793 61.8863 62.9359 61.7742C62.9736 61.6808 63.0301 61.5874 63.0678 61.4939C63.1055 61.3818 63.162 61.2884 63.1997 61.1763C63.2374 61.0828 63.2939 60.9894 63.3316 60.8773C63.3693 60.7652 63.4259 60.6717 63.4636 60.5596C63.5013 60.4475 63.5578 60.3541 63.5955 60.242C63.6332 60.1298 63.6897 60.0364 63.7274 59.9243C63.7651 59.8309 63.8028 59.7188 63.8593 59.6066C63.897 59.4945 63.9535 59.3824 63.9912 59.2703C64.0289 59.1769 64.0666 59.0647 64.1043 58.9713C64.142 58.8592 64.1985 58.7471 64.2362 58.6163C64.2739 58.5228 64.3116 58.4294 64.3493 58.3173C64.4058 58.1865 64.4435 58.0744 64.5001 57.9436C64.5378 57.8501 64.5566 57.7754 64.5943 57.682C64.6508 57.5512 64.6885 57.4204 64.7451 57.2896C64.7827 57.1961 64.8204 57.1027 64.8393 57.0093C64.877 56.8785 64.9335 56.7477 64.9712 56.6355C65.0089 56.5421 65.0466 56.43 65.0843 56.3366C65.122 56.2244 65.1785 56.0936 65.2162 55.9815C65.2539 55.8881 65.2916 55.7947 65.3104 55.7012C65.3481 55.5891 65.4046 55.4583 65.4423 55.3462C65.48 55.2528 65.4989 55.1593 65.5366 55.0846C65.5742 54.9538 65.6308 54.8417 65.6685 54.7109C65.6873 54.6361 65.725 54.5614 65.7439 54.5053C65.7816 54.3745 65.8381 54.225 65.8758 54.0942C65.8946 54.0195 65.9323 53.9447 65.9512 53.8513C65.9889 53.7205 66.0265 53.6084 66.0831 53.4776C66.1019 53.4028 66.1396 53.3281 66.1585 53.2534C66.1962 53.1226 66.2338 53.0104 66.2904 52.8796C66.2904 52.8423 66.3092 52.8049 66.3281 52.7675L76.4481 49.7777C77.1077 49.5909 79.2184 48.8995 80.726 48.3389C81.5552 48.0212 82.3467 47.6288 83.0817 47.1243C84.7778 45.9844 88.3773 43.4805 88.8673 42.4901V42.4341C89.3196 41.5745 88.7731 40.5468 87.812 40.3973L87.7743 40.472Z" fill="#2B94D2"/>
<path d="M145.8 9.28489H139.957V13.3024H145.8V9.28489Z" fill="#2B94D2"/>
<path d="M136.829 9.28489H125.597V13.3024H136.829V9.28489Z" fill="#2B94D2"/>
<path d="M160.16 9.28489H148.928V13.3024H160.16V9.28489Z" fill="#2B94D2"/>
<path d="M131.439 17.2452H125.597V21.2627H131.439V17.2452Z" fill="#2B94D2"/>
<path d="M140.41 17.2452H134.568V21.2627H140.41V17.2452Z" fill="#2B94D2"/>
<path d="M148.721 17.2452H142.878V21.2627H148.721V17.2452Z" fill="#2B94D2"/>
<path d="M160.179 17.2452H151.453V21.2627H160.179V17.2452Z" fill="#2B94D2"/>
<path d="M136.829 66.67H160.16V43.5366H136.829V66.67ZM138.714 45.4052H158.275V64.8014H138.714V45.4052Z" fill="#2B94D2"/>
</svg>
