<svg width="90" height="121" viewBox="0 0 90 121" fill="none" xmlns="http://www.w3.org/2000/svg">
<path d="M0.917969 0.219971H84.5002C87.0241 0.219971 89.0812 2.2785 89.0812 4.80408V115.636C89.0812 118.161 87.0241 120.22 84.5002 120.22H0.917969V0.219971Z" fill="#A93D45"/>
<path d="M13.8993 32.0492V35.6127H12.257V25.8563H15.5761C17.8234 25.8563 19.1718 26.9288 19.1718 28.9355C19.1718 30.9421 17.8407 32.0492 15.5761 32.0492H13.8993ZM15.4205 30.648C16.9245 30.648 17.5468 30.0599 17.5468 28.9528C17.5468 27.8456 16.9245 27.2921 15.4205 27.2921H13.8993V30.648H15.4205Z" fill="#D9CCAD"/>
<path d="M18.8617 35.6299L22.25 25.8735H23.8058L27.194 35.6299H25.448L24.7911 33.6059H21.2646L20.6077 35.6299H18.8617ZM21.7313 32.1875H24.3417L23.0452 28.2434L21.7486 32.1875H21.7313Z" fill="#D9CCAD"/>
<path d="M33.3985 28.2262C32.9145 27.5688 32.3959 27.171 31.2895 27.171C30.2869 27.171 29.6991 27.6207 29.6991 28.4511C29.6991 29.3852 30.4425 29.7485 31.7908 30.0425C33.7615 30.475 34.7815 31.2015 34.7815 32.966C34.7815 34.4191 33.8134 35.7683 31.4624 35.7683C29.7856 35.7683 28.6273 35.2667 27.8148 34.1769L29.0941 33.2774C29.6818 33.9693 30.2523 34.3326 31.376 34.3326C32.7243 34.3326 33.1392 33.7444 33.1392 33.0352C33.1392 32.2567 32.707 31.7724 30.9956 31.4091C29.1114 31.0112 28.0569 30.1117 28.0569 28.4511C28.0569 26.9807 29.0249 25.7525 31.3068 25.7525C32.8626 25.7525 33.9517 26.2714 34.6432 27.344L33.3985 28.2435V28.2262Z" fill="#D9CCAD"/>
<path d="M41.4892 28.2262C41.0052 27.5689 40.4866 27.171 39.3802 27.171C38.3776 27.171 37.7898 27.6208 37.7898 28.4511C37.7898 29.3852 38.5331 29.7485 39.8815 30.0426C41.8522 30.475 42.8722 31.2016 42.8722 32.966C42.8722 34.4191 41.9041 35.7684 39.5531 35.7684C37.8762 35.7684 36.718 35.2667 35.9055 34.1769L37.1848 33.2774C37.7725 33.9693 38.343 34.3326 39.4666 34.3326C40.815 34.3326 41.2299 33.7444 41.2299 33.0352C41.2299 32.2568 40.7977 31.7724 39.0863 31.4091C37.2021 31.0113 36.1475 30.1118 36.1475 28.4511C36.1475 26.9807 37.1156 25.7525 39.3975 25.7525C40.9533 25.7525 42.0424 26.2715 42.7339 27.344L41.4892 28.2435V28.2262Z" fill="#D9CCAD"/>
<path d="M46.1587 32.0491V35.6126H44.5164V25.8562H47.8355C50.0828 25.8562 51.4312 26.9287 51.4312 28.9353C51.4312 30.942 50.1001 32.0491 47.8355 32.0491H46.1587ZM47.6626 30.6479C49.1666 30.6479 49.7889 30.0598 49.7889 28.9526C49.7889 27.8455 49.1666 27.292 47.6626 27.292H46.1414V30.6479H47.6626Z" fill="#D9CCAD"/>
<path d="M56.0952 35.7511C53.917 35.7511 52.4477 34.4364 52.4477 31.3572V30.1118C52.4477 27.0326 53.917 25.7179 56.0952 25.7179C58.2733 25.7179 59.76 27.0326 59.76 30.1118V31.3572C59.76 34.4364 58.2906 35.7511 56.0952 35.7511ZM54.0726 31.3572C54.0726 33.4677 54.7814 34.3153 56.0779 34.3153C57.3744 34.3153 58.1005 33.4677 58.1005 31.3572V30.1118C58.1005 28.0013 57.3744 27.1537 56.0779 27.1537C54.7814 27.1537 54.0726 28.0013 54.0726 30.1118V31.3572Z" fill="#D9CCAD"/>
<path d="M66.9179 35.6299L65.0337 31.6685H63.1321V35.6299H61.4898V25.8735H64.8089C67.0562 25.8735 68.4046 26.8422 68.4046 28.7969C68.4046 30.1462 67.765 31.0112 66.6413 31.409L68.7158 35.6472H66.9006L66.9179 35.6299ZM64.7052 30.25C66.0882 30.25 66.7624 29.8868 66.7624 28.7796C66.7624 27.6725 66.0882 27.292 64.7052 27.292H63.1321V30.25H64.7052Z" fill="#D9CCAD"/>
<path d="M76.2691 25.8562V27.292H73.4686V35.6299H71.8264V27.292H69.0086V25.8562H76.2691Z" fill="#D9CCAD"/>
<path d="M44.9992 46.6667C34.2294 46.6667 25.4477 55.437 25.4477 66.2313C25.4477 77.0256 34.2121 85.796 44.9992 85.796C55.7862 85.796 64.5507 77.0256 64.5507 66.2313C64.5507 55.437 55.7862 46.6667 44.9992 46.6667ZM44.9992 84.4813C40.0897 84.4813 35.6469 82.5265 32.3624 79.3609C32.518 77.8559 32.2587 76.2991 32.8637 74.8806C34.1776 71.7841 31.014 71.9225 31.3425 68.6877C31.5845 66.3351 29.7867 65.3491 26.8652 64.3112C27.4702 58.4643 30.8585 53.465 35.6642 50.5761C34.506 53.1709 34.0393 55.4543 34.7999 57.4263C36.0445 60.6612 39.2253 60.3152 40.5737 62.1316C41.9394 63.9479 42.4926 63.0311 43.184 63.723C43.8755 64.415 42.0431 67.6844 43.8064 69.5699C45.5696 71.4382 47.4885 72.4069 46.6414 73.7735C45.7944 75.1401 45.8462 77.2851 45.6215 79.1533C45.3968 81.0216 44.204 81.8692 46.0709 81.8692C47.9379 81.8692 47.3156 78.6863 49.5283 78.6863C51.7411 78.6863 50.0988 77.1467 52.9857 75.8493C55.8726 74.5519 53.7809 72.4415 56.4431 70.8673C59.1053 69.2932 57.463 68.2552 55.3713 67.0616C53.2796 65.868 52.9857 65.6432 52.9339 64.7955C52.882 63.9479 51.2052 65.4529 50.0642 63.9133C48.9233 62.3737 48.9924 62.6159 47.0217 62.6851C45.051 62.7543 44.567 62.4948 43.2359 61.4915C41.8875 60.5055 41.6628 57.9453 40.3836 58.7929C39.1216 59.6406 37.2546 58.2221 38.4128 57.3053C39.5538 56.3884 40.349 55.61 41.8875 57.4955C43.4261 59.3984 43.6681 53.7418 45.4832 53.7072C47.2983 53.6726 47.1427 52.4098 48.9233 52.2022C50.7038 51.9946 51.3262 50.628 52.3288 51.5621C53.2104 52.4098 53.5389 52.9114 56.3221 51.9254C57.221 52.6347 58.0508 53.4477 58.8114 54.3126C58.2755 55.2121 58.0681 56.0944 58.4657 57.0112C59.4683 59.26 58.0508 59.9692 60.3327 62.4775C62.2688 64.6052 59.3819 64.7436 63.185 67.4249C62.5627 76.9218 54.6625 84.464 44.9992 84.464V84.4813Z" fill="#D9CCAD"/>
</svg>
