<svg width="50" height="36" viewBox="0 0 50 36" fill="none" xmlns="http://www.w3.org/2000/svg">
<path fill-rule="evenodd" clip-rule="evenodd" d="M33.9394 1.99414C33.9394 0.889571 33.044 -0.00585938 31.9394 -0.00585938H2.5C1.39543 -0.00585938 0.5 0.88957 0.5 1.99414V3.13867C0.5 4.24324 1.39543 5.13867 2.5 5.13867H31.9394C33.044 5.13867 33.9394 4.24324 33.9394 3.13867V1.99414ZM44.7429 7.71098C45.0002 7.71098 45.5146 7.9682 45.7718 8.22543L49.1158 11.5694C49.6302 12.0838 49.6302 13.1127 49.1158 13.6272L47.9577 14.7852C47.1767 15.5663 45.9104 15.5663 45.1293 14.7852L42.556 12.2119C41.7749 11.4309 41.7749 10.1645 42.556 9.38348L43.714 8.22543C43.9713 7.9682 44.2285 7.71098 44.7429 7.71098ZM28.7949 12.2832C28.7949 11.1787 27.8995 10.2832 26.7949 10.2832H2.5C1.39543 10.2832 0.5 11.1787 0.5 12.2832V13.4278C0.5 14.5323 1.39543 15.4278 2.5 15.4278H26.7949C27.8995 15.4278 28.7949 14.5323 28.7949 13.4278V12.2832ZM19.3489 25.131C18.9738 25.5061 18.4651 25.7168 17.9346 25.7168H2.5C1.39543 25.7168 0.5 24.8214 0.5 23.7168V22.5723C0.5 21.4677 1.39543 20.5723 2.5 20.5723H19.0781C20.1827 20.5723 21.0781 21.4685 21.0781 22.573C21.0781 23.1035 20.8674 23.6125 20.4923 23.9876L19.3489 25.131ZM28.2237 33.4336C28.7541 33.4336 29.2628 33.2229 29.6379 32.8478L43.3287 19.157C44.1098 18.376 44.1098 17.1096 43.3287 16.3286L40.7554 13.7553C39.9743 12.9742 38.708 12.9742 37.927 13.7553L24.2362 27.4461C23.8611 27.8211 23.6504 28.3299 23.6504 28.8603V31.4336C23.6504 32.5382 24.5458 33.4336 25.6504 33.4336H28.2237ZM0.5 32.8615C0.5 31.7569 1.39543 30.8615 2.5 30.8615H16.5058C17.6104 30.8615 18.5058 31.7569 18.5058 32.8615V34.006C18.5058 35.1106 17.6104 36.006 16.5058 36.006H2.5C1.39543 36.006 0.5 35.1106 0.5 34.006V32.8615Z" fill="white"/>
</svg>
